<svg width="333" height="1316" viewBox="0 0 333 1316" fill="none" xmlns="http://www.w3.org/2000/svg">
<path d="M65.424 40V38.976C64.7627 38.944 64.128 38.8053 63.52 38.56C62.9227 38.304 62.3893 37.9573 61.92 37.52C61.4613 37.0827 61.0987 36.5653 60.832 35.968C60.5653 35.3707 60.432 34.704 60.432 33.968C60.432 33.2 60.5707 32.512 60.848 31.904C61.136 31.296 61.5147 30.7787 61.984 30.352C62.4533 29.9253 62.9813 29.5947 63.568 29.36C64.1653 29.1147 64.784 28.976 65.424 28.944V28.048H67.904V28.944C68.544 28.976 69.1627 29.1147 69.76 29.36C70.3573 29.6053 70.8907 29.9413 71.36 30.368C71.8293 30.7947 72.2027 31.312 72.48 31.92C72.7573 32.528 72.896 33.2107 72.896 33.968C72.896 34.704 72.7573 35.376 72.48 35.984C72.2133 36.5813 71.8453 37.0987 71.376 37.536C70.9067 37.9627 70.3733 38.304 69.776 38.56C69.1787 38.8053 68.5547 38.944 67.904 38.976V40H65.424ZM65.488 36.88V31.04C65.0507 31.072 64.6453 31.2107 64.272 31.456C63.9093 31.6907 63.616 32.016 63.392 32.432C63.168 32.848 63.056 33.36 63.056 33.968C63.056 34.416 63.12 34.816 63.248 35.168C63.3867 35.52 63.568 35.8187 63.792 36.064C64.0267 36.2987 64.288 36.4907 64.576 36.64C64.8747 36.7787 65.1787 36.8587 65.488 36.88ZM67.84 36.88C68.2667 36.8373 68.6613 36.6987 69.024 36.464C69.3973 36.2293 69.696 35.904 69.92 35.488C70.1547 35.072 70.272 34.5653 70.272 33.968C70.272 33.52 70.208 33.1253 70.08 32.784C69.952 32.432 69.776 32.1333 69.552 31.888C69.328 31.632 69.0667 31.4347 68.768 31.296C68.48 31.1467 68.1707 31.0613 67.84 31.04V36.88ZM77.6801 40V28.64H80.3041V36.272L85.2001 28.64H87.6481V40H85.0241V32.416L80.1921 40H77.6801ZM100.169 40V30.944H97.3534L97.2894 32.688C97.236 34.16 97.108 35.376 96.9054 36.336C96.7134 37.296 96.4254 38.048 96.0414 38.592C95.6574 39.136 95.1667 39.5253 94.5694 39.76C93.9827 39.984 93.2787 40.096 92.4574 40.096V37.824C92.8307 37.824 93.156 37.7493 93.4334 37.6C93.7107 37.44 93.94 37.152 94.1214 36.736C94.3134 36.32 94.4627 35.728 94.5694 34.96C94.6867 34.1813 94.7667 33.168 94.8094 31.92L94.9214 28.64H102.793V40H100.169ZM108.22 40V28.64H110.844V32.56H112.956C113.799 32.56 114.519 32.7093 115.116 33.008C115.714 33.3067 116.172 33.7333 116.492 34.288C116.812 34.8427 116.972 35.4987 116.972 36.256C116.972 37.0027 116.818 37.6587 116.508 38.224C116.199 38.7893 115.756 39.2267 115.18 39.536C114.604 39.8453 113.911 40 113.1 40H108.22ZM110.844 37.856H112.716C113.079 37.856 113.378 37.7867 113.612 37.648C113.847 37.5093 114.018 37.3173 114.124 37.072C114.242 36.8267 114.3 36.5547 114.3 36.256C114.3 35.9787 114.242 35.7227 114.124 35.488C114.018 35.2533 113.847 35.0667 113.612 34.928C113.388 34.7787 113.09 34.704 112.716 34.704H110.844V37.856ZM130.294 30.944H126.838V40H124.214V30.944H120.742V28.64H130.294V30.944ZM134.776 40V28.64H139.624C140.168 28.64 140.664 28.752 141.112 28.976C141.57 29.1893 141.965 29.4827 142.296 29.856C142.626 30.2187 142.882 30.6293 143.064 31.088C143.245 31.5467 143.336 32.016 143.336 32.496C143.336 33.1467 143.181 33.7653 142.872 34.352C142.573 34.9387 142.152 35.4187 141.608 35.792C141.074 36.1547 140.44 36.336 139.704 36.336H137.4V40H134.776ZM137.4 34.048H139.544C139.746 34.048 139.933 33.9893 140.104 33.872C140.274 33.7547 140.413 33.5787 140.52 33.344C140.626 33.1093 140.68 32.8213 140.68 32.48C140.68 32.128 140.616 31.84 140.488 31.616C140.37 31.3813 140.216 31.2107 140.024 31.104C139.842 30.9973 139.65 30.944 139.448 30.944H137.4V34.048ZM148.008 34.304V31.696H150.088V34.304H148.008ZM148.008 40V37.392H150.088V40H148.008Z" fill="black"/>
<line x1="60" y1="165" x2="260" y2="165" stroke="#DCDCDC" stroke-width="2"/>
<line x1="60" y1="165" x2="179" y2="165" stroke="black" stroke-width="2"/>
<circle cx="60" cy="165" r="8" fill="#EBEBEB" stroke="black" stroke-width="2"/>
<circle cx="179" cy="165" r="8" fill="#EBEBEB" stroke="black" stroke-width="2"/>
<path opacity="0.3" d="M53.9629 190.395C53.9829 190.615 53.9929 190.855 53.9929 191.115C53.9929 191.355 53.9829 191.585 53.9629 191.805C53.8729 192.825 53.5179 193.64 52.8979 194.25C52.2879 194.85 51.4579 195.15 50.4079 195.15C49.3579 195.15 48.5229 194.85 47.9029 194.25C47.2929 193.64 46.9429 192.825 46.8529 191.805C46.8429 191.695 46.8379 191.465 46.8379 191.115C46.8379 190.745 46.8429 190.505 46.8529 190.395C46.9329 189.375 47.2829 188.565 47.9029 187.965C48.5229 187.355 49.3579 187.05 50.4079 187.05C51.4579 187.05 52.2929 187.355 52.9129 187.965C53.5329 188.565 53.8829 189.375 53.9629 190.395ZM52.5979 190.47C52.5379 189.83 52.3229 189.315 51.9529 188.925C51.5929 188.535 51.0779 188.34 50.4079 188.34C49.7379 188.34 49.2179 188.535 48.8479 188.925C48.4879 189.315 48.2779 189.83 48.2179 190.47C48.2079 190.59 48.2029 190.805 48.2029 191.115C48.2029 191.415 48.2079 191.62 48.2179 191.73C48.2779 192.37 48.4879 192.885 48.8479 193.275C49.2179 193.665 49.7379 193.86 50.4079 193.86C51.0779 193.86 51.5929 193.665 51.9529 193.275C52.3229 192.885 52.5379 192.37 52.5979 191.73C52.6179 191.51 52.6279 191.305 52.6279 191.115C52.6279 190.925 52.6179 190.71 52.5979 190.47ZM61.9301 187.2C62.0401 187.2 62.1351 187.24 62.2151 187.32C62.2951 187.4 62.3351 187.495 62.3351 187.605V188.085C62.3351 188.195 62.2951 188.29 62.2151 188.37C62.1351 188.45 62.0401 188.49 61.9301 188.49H59.3351V194.595C59.3351 194.705 59.2951 194.8 59.2151 194.88C59.1351 194.96 59.0401 195 58.9301 195H58.3751C58.2651 195 58.1701 194.96 58.0901 194.88C58.0101 194.8 57.9701 194.705 57.9701 194.595V188.49H55.3751C55.2651 188.49 55.1701 188.45 55.0901 188.37C55.0101 188.29 54.9701 188.195 54.9701 188.085V187.605C54.9701 187.495 55.0101 187.4 55.0901 187.32C55.1701 187.24 55.2651 187.2 55.3751 187.2H61.9301ZM74.8095 191.025C74.7895 192.265 74.4595 193.265 73.8195 194.025C73.1895 194.775 72.2445 195.15 70.9845 195.15C69.7245 195.15 68.7745 194.775 68.1345 194.025C67.5045 193.265 67.1795 192.265 67.1595 191.025L67.1445 189.75L67.1595 188.49C67.1795 187.25 67.5045 186.25 68.1345 185.49C68.7745 184.73 69.7245 184.35 70.9845 184.35C72.2445 184.35 73.1895 184.73 73.8195 185.49C74.4595 186.25 74.7895 187.25 74.8095 188.49C74.8195 188.79 74.8245 189.21 74.8245 189.75C74.8245 190.3 74.8195 190.725 74.8095 191.025ZM70.9845 193.8C72.5545 193.8 73.3595 192.875 73.3995 191.025C73.4095 190.725 73.4145 190.3 73.4145 189.75C73.4145 189.21 73.4095 188.79 73.3995 188.49C73.3595 186.63 72.5545 185.7 70.9845 185.7C69.4145 185.7 68.6095 186.63 68.5695 188.49L68.5545 189.75L68.5695 191.025C68.6095 192.875 69.4145 193.8 70.9845 193.8Z" fill="black"/>
<path opacity="0.3" d="M150.811 183.605C150.811 183.495 150.846 183.4 150.916 183.32C150.996 183.24 151.091 183.2 151.201 183.2H155.386C155.496 183.2 155.591 183.24 155.671 183.32C155.751 183.4 155.791 183.495 155.791 183.605V189.71H156.076C156.186 189.71 156.281 189.75 156.361 189.83C156.441 189.91 156.481 190.005 156.481 190.115V192.245C156.481 192.355 156.441 192.45 156.361 192.53C156.281 192.61 156.186 192.65 156.076 192.65H155.521C155.411 192.65 155.316 192.61 155.236 192.53C155.156 192.45 155.116 192.355 155.116 192.245V191H150.676V192.245C150.676 192.355 150.636 192.45 150.556 192.53C150.476 192.61 150.381 192.65 150.271 192.65H149.716C149.606 192.65 149.511 192.61 149.431 192.53C149.351 192.45 149.311 192.355 149.311 192.245V190.115C149.311 190.005 149.351 189.91 149.431 189.83C149.511 189.75 149.606 189.71 149.716 189.71H150.061C150.361 189.71 150.561 189.58 150.661 189.32C150.761 189.06 150.811 188.695 150.811 188.225V183.605ZM152.176 184.49V188.465C152.176 189.015 152.081 189.43 151.891 189.71H154.426V184.49H152.176ZM165.06 186.395C165.08 186.615 165.09 186.855 165.09 187.115C165.09 187.355 165.08 187.585 165.06 187.805C164.97 188.825 164.615 189.64 163.995 190.25C163.385 190.85 162.555 191.15 161.505 191.15C160.455 191.15 159.62 190.85 159 190.25C158.39 189.64 158.04 188.825 157.95 187.805C157.94 187.695 157.935 187.465 157.935 187.115C157.935 186.745 157.94 186.505 157.95 186.395C158.03 185.375 158.38 184.565 159 183.965C159.62 183.355 160.455 183.05 161.505 183.05C162.555 183.05 163.39 183.355 164.01 183.965C164.63 184.565 164.98 185.375 165.06 186.395ZM163.695 186.47C163.635 185.83 163.42 185.315 163.05 184.925C162.69 184.535 162.175 184.34 161.505 184.34C160.835 184.34 160.315 184.535 159.945 184.925C159.585 185.315 159.375 185.83 159.315 186.47C159.305 186.59 159.3 186.805 159.3 187.115C159.3 187.415 159.305 187.62 159.315 187.73C159.375 188.37 159.585 188.885 159.945 189.275C160.315 189.665 160.835 189.86 161.505 189.86C162.175 189.86 162.69 189.665 163.05 189.275C163.42 188.885 163.635 188.37 163.695 187.73C163.715 187.51 163.725 187.305 163.725 187.115C163.725 186.925 163.715 186.71 163.695 186.47ZM173.944 189.8C174.634 189.8 175.204 189.615 175.654 189.245C176.104 188.865 176.329 188.325 176.329 187.625C176.329 186.925 176.104 186.39 175.654 186.02C175.204 185.64 174.634 185.45 173.944 185.45C173.534 185.45 173.214 185.5 172.984 185.6C172.754 185.69 172.524 185.815 172.294 185.975C172.174 186.065 172.069 186.135 171.979 186.185C171.899 186.225 171.804 186.245 171.694 186.245H170.929C170.839 186.245 170.759 186.215 170.689 186.155C170.629 186.085 170.599 186.005 170.599 185.915L171.049 180.905C171.049 180.795 171.089 180.7 171.169 180.62C171.249 180.54 171.344 180.5 171.454 180.5H176.749C176.859 180.5 176.954 180.54 177.034 180.62C177.114 180.7 177.154 180.795 177.154 180.905V181.445C177.154 181.555 177.114 181.65 177.034 181.73C176.954 181.81 176.859 181.85 176.749 181.85H172.384L172.144 184.445C172.654 184.215 173.254 184.1 173.944 184.1C174.654 184.1 175.294 184.245 175.864 184.535C176.444 184.815 176.904 185.225 177.244 185.765C177.584 186.295 177.754 186.915 177.754 187.625C177.754 188.335 177.584 188.96 177.244 189.5C176.904 190.03 176.444 190.44 175.864 190.73C175.294 191.01 174.654 191.15 173.944 191.15C173.284 191.15 172.664 191.03 172.084 190.79C171.504 190.54 171.039 190.195 170.689 189.755C170.339 189.315 170.159 188.82 170.149 188.27C170.149 188.18 170.179 188.105 170.239 188.045C170.309 187.975 170.389 187.94 170.479 187.94H171.169C171.259 187.94 171.339 187.97 171.409 188.03C171.479 188.09 171.529 188.17 171.559 188.27C171.689 188.73 171.974 189.1 172.414 189.38C172.854 189.66 173.364 189.8 173.944 189.8ZM186.99 187.025C186.97 188.265 186.64 189.265 186 190.025C185.37 190.775 184.425 191.15 183.165 191.15C181.905 191.15 180.955 190.775 180.315 190.025C179.685 189.265 179.36 188.265 179.34 187.025L179.325 185.75L179.34 184.49C179.36 183.25 179.685 182.25 180.315 181.49C180.955 180.73 181.905 180.35 183.165 180.35C184.425 180.35 185.37 180.73 186 181.49C186.64 182.25 186.97 183.25 186.99 184.49C187 184.79 187.005 185.21 187.005 185.75C187.005 186.3 187 186.725 186.99 187.025ZM183.165 189.8C184.735 189.8 185.54 188.875 185.58 187.025C185.59 186.725 185.595 186.3 185.595 185.75C185.595 185.21 185.59 184.79 185.58 184.49C185.54 182.63 184.735 181.7 183.165 181.7C181.595 181.7 180.79 182.63 180.75 184.49L180.735 185.75L180.75 187.025C180.79 188.875 181.595 189.8 183.165 189.8ZM196.497 187.025C196.477 188.265 196.147 189.265 195.507 190.025C194.877 190.775 193.932 191.15 192.672 191.15C191.412 191.15 190.462 190.775 189.822 190.025C189.192 189.265 188.867 188.265 188.847 187.025L188.832 185.75L188.847 184.49C188.867 183.25 189.192 182.25 189.822 181.49C190.462 180.73 191.412 180.35 192.672 180.35C193.932 180.35 194.877 180.73 195.507 181.49C196.147 182.25 196.477 183.25 196.497 184.49C196.507 184.79 196.512 185.21 196.512 185.75C196.512 186.3 196.507 186.725 196.497 187.025ZM192.672 189.8C194.242 189.8 195.047 188.875 195.087 187.025C195.097 186.725 195.102 186.3 195.102 185.75C195.102 185.21 195.097 184.79 195.087 184.49C195.047 182.63 194.242 181.7 192.672 181.7C191.102 181.7 190.297 182.63 190.257 184.49L190.242 185.75L190.257 187.025C190.297 188.875 191.102 189.8 192.672 189.8ZM206.004 187.025C205.984 188.265 205.654 189.265 205.014 190.025C204.384 190.775 203.439 191.15 202.179 191.15C200.919 191.15 199.969 190.775 199.329 190.025C198.699 189.265 198.374 188.265 198.354 187.025L198.339 185.75L198.354 184.49C198.374 183.25 198.699 182.25 199.329 181.49C199.969 180.73 200.919 180.35 202.179 180.35C203.439 180.35 204.384 180.73 205.014 181.49C205.654 182.25 205.984 183.25 206.004 184.49C206.014 184.79 206.019 185.21 206.019 185.75C206.019 186.3 206.014 186.725 206.004 187.025ZM202.179 189.8C203.749 189.8 204.554 188.875 204.594 187.025C204.604 186.725 204.609 186.3 204.609 185.75C204.609 185.21 204.604 184.79 204.594 184.49C204.554 182.63 203.749 181.7 202.179 181.7C200.609 181.7 199.804 182.63 199.764 184.49L199.749 185.75L199.764 187.025C199.804 188.875 200.609 189.8 202.179 189.8Z" fill="black"/>
<line x1="60" y1="103" x2="260" y2="103" stroke="black" stroke-width="2"/>
<path d="M64.158 127.212C64.206 127.836 64.404 128.34 64.752 128.724C65.112 129.108 65.67 129.3 66.426 129.3C67.146 129.3 67.668 129.162 67.992 128.886C68.316 128.61 68.544 128.274 68.676 127.878C68.748 127.674 68.82 127.536 68.892 127.464C68.964 127.392 69.096 127.356 69.288 127.356H71.646C71.754 127.356 71.844 127.398 71.916 127.482C72 127.554 72.042 127.644 72.042 127.752C72.03 128.556 71.772 129.3 71.268 129.984C70.776 130.656 70.104 131.19 69.252 131.586C68.4 131.982 67.458 132.18 66.426 132.18C65.31 132.18 64.338 131.964 63.51 131.532C62.682 131.088 62.04 130.5 61.584 129.768C61.128 129.024 60.876 128.202 60.828 127.302C60.804 126.726 60.792 126.252 60.792 125.88C60.792 125.436 60.804 124.842 60.828 124.098C60.864 123.198 61.11 122.382 61.566 121.65C62.022 120.906 62.664 120.318 63.492 119.886C64.332 119.442 65.31 119.22 66.426 119.22C67.458 119.22 68.4 119.418 69.252 119.814C70.104 120.21 70.776 120.75 71.268 121.434C71.772 122.106 72.03 122.844 72.042 123.648C72.042 123.756 72 123.852 71.916 123.936C71.844 124.008 71.754 124.044 71.646 124.044H69.288C69.096 124.044 68.964 124.008 68.892 123.936C68.82 123.864 68.748 123.726 68.676 123.522C68.544 123.126 68.316 122.79 67.992 122.514C67.668 122.238 67.146 122.1 66.426 122.1C65.67 122.1 65.112 122.292 64.752 122.676C64.404 123.06 64.206 123.564 64.158 124.188C64.134 124.596 64.122 125.1 64.122 125.7C64.122 126.276 64.134 126.78 64.158 127.212ZM81.5508 122.64C81.6828 122.64 81.7968 122.688 81.8928 122.784C81.9888 122.88 82.0368 122.994 82.0368 123.126V124.944C82.0368 125.076 81.9888 125.19 81.8928 125.286C81.7968 125.382 81.6828 125.43 81.5508 125.43H78.8688V131.514C78.8688 131.646 78.8208 131.76 78.7248 131.856C78.6288 131.952 78.5148 132 78.3828 132H76.1148C75.9828 132 75.8688 131.952 75.7728 131.856C75.6768 131.76 75.6288 131.646 75.6288 131.514V125.43H72.9468C72.8148 125.43 72.7008 125.382 72.6048 125.286C72.5088 125.19 72.4608 125.076 72.4608 124.944V123.126C72.4608 122.994 72.5088 122.88 72.6048 122.784C72.7008 122.688 72.8148 122.64 72.9468 122.64H81.5508ZM92.3782 128.022C92.3422 128.79 92.1202 129.492 91.7122 130.128C91.3042 130.752 90.7342 131.25 90.0022 131.622C89.2702 131.994 88.4302 132.18 87.4822 132.18C86.5342 132.18 85.6942 131.994 84.9622 131.622C84.2302 131.25 83.6602 130.752 83.2522 130.128C82.8442 129.492 82.6222 128.79 82.5862 128.022L82.5682 127.32L82.5862 126.636C82.6102 125.868 82.8262 125.166 83.2342 124.53C83.6422 123.894 84.2122 123.39 84.9442 123.018C85.6882 122.646 86.5342 122.46 87.4822 122.46C88.4302 122.46 89.2702 122.646 90.0022 123.018C90.7462 123.39 91.3222 123.894 91.7302 124.53C92.1382 125.166 92.3542 125.868 92.3782 126.636C92.3902 126.756 92.3962 126.984 92.3962 127.32C92.3962 127.668 92.3902 127.902 92.3782 128.022ZM87.4822 129.39C87.9622 129.39 88.3462 129.264 88.6342 129.012C88.9342 128.748 89.1022 128.388 89.1382 127.932C89.1622 127.692 89.1742 127.488 89.1742 127.32C89.1742 127.152 89.1622 126.948 89.1382 126.708C89.1022 126.252 88.9342 125.898 88.6342 125.646C88.3462 125.382 87.9622 125.25 87.4822 125.25C87.0022 125.25 86.6122 125.382 86.3122 125.646C86.0242 125.898 85.8622 126.252 85.8262 126.708C85.8142 126.828 85.8082 127.032 85.8082 127.32C85.8082 127.608 85.8142 127.812 85.8262 127.932C85.8622 128.388 86.0242 128.748 86.3122 129.012C86.6122 129.264 87.0022 129.39 87.4822 129.39ZM100.572 132C100.44 132 100.326 131.952 100.23 131.856C100.134 131.76 100.086 131.646 100.086 131.514V127.554L96.684 131.802C96.576 131.934 96.438 132 96.27 132H94.182C94.05 132 93.936 131.952 93.84 131.856C93.756 131.76 93.714 131.646 93.714 131.514V123.126C93.714 122.994 93.762 122.88 93.858 122.784C93.954 122.688 94.068 122.64 94.2 122.64H96.468C96.6 122.64 96.714 122.688 96.81 122.784C96.906 122.88 96.954 122.994 96.954 123.126V127.104L100.356 122.838C100.464 122.706 100.596 122.64 100.752 122.64H102.84C102.972 122.64 103.086 122.688 103.182 122.784C103.278 122.88 103.326 122.994 103.326 123.126V131.514C103.326 131.646 103.278 131.76 103.182 131.856C103.086 131.952 102.972 132 102.84 132H100.572ZM112.657 123C112.717 122.892 112.789 122.808 112.873 122.748C112.969 122.676 113.125 122.64 113.341 122.64H115.411C115.543 122.64 115.657 122.688 115.753 122.784C115.849 122.88 115.897 122.994 115.897 123.126V131.514C115.897 131.646 115.849 131.76 115.753 131.856C115.657 131.952 115.543 132 115.411 132H113.143C113.011 132 112.897 131.952 112.801 131.856C112.705 131.76 112.657 131.646 112.657 131.514V128.094L111.415 130.074C111.247 130.338 111.055 130.47 110.839 130.47H110.119C109.903 130.47 109.711 130.338 109.543 130.074L108.301 128.094V131.514C108.301 131.646 108.253 131.76 108.157 131.856C108.061 131.952 107.947 132 107.815 132H105.547C105.415 132 105.301 131.952 105.205 131.856C105.109 131.76 105.061 131.646 105.061 131.514V123.126C105.061 122.994 105.109 122.88 105.205 122.784C105.301 122.688 105.415 122.64 105.547 122.64H107.617C107.833 122.64 107.983 122.676 108.067 122.748C108.163 122.808 108.241 122.892 108.301 123L110.479 126.474L112.657 123ZM127.017 128.022C126.981 128.79 126.759 129.492 126.351 130.128C125.943 130.752 125.373 131.25 124.641 131.622C123.909 131.994 123.069 132.18 122.121 132.18C121.173 132.18 120.333 131.994 119.601 131.622C118.869 131.25 118.299 130.752 117.891 130.128C117.483 129.492 117.261 128.79 117.225 128.022L117.207 127.32L117.225 126.636C117.249 125.868 117.465 125.166 117.873 124.53C118.281 123.894 118.851 123.39 119.583 123.018C120.327 122.646 121.173 122.46 122.121 122.46C123.069 122.46 123.909 122.646 124.641 123.018C125.385 123.39 125.961 123.894 126.369 124.53C126.777 125.166 126.993 125.868 127.017 126.636C127.029 126.756 127.035 126.984 127.035 127.32C127.035 127.668 127.029 127.902 127.017 128.022ZM122.121 129.39C122.601 129.39 122.985 129.264 123.273 129.012C123.573 128.748 123.741 128.388 123.777 127.932C123.801 127.692 123.813 127.488 123.813 127.32C123.813 127.152 123.801 126.948 123.777 126.708C123.741 126.252 123.573 125.898 123.273 125.646C122.985 125.382 122.601 125.25 122.121 125.25C121.641 125.25 121.251 125.382 120.951 125.646C120.663 125.898 120.501 126.252 120.465 126.708C120.453 126.828 120.447 127.032 120.447 127.32C120.447 127.608 120.453 127.812 120.465 127.932C120.501 128.388 120.663 128.748 120.951 129.012C121.251 129.264 121.641 129.39 122.121 129.39ZM131.215 127.95C131.251 128.382 131.413 128.73 131.701 128.994C132.001 129.258 132.385 129.39 132.853 129.39C133.225 129.39 133.519 129.336 133.735 129.228C133.951 129.12 134.131 128.958 134.275 128.742C134.347 128.622 134.419 128.532 134.491 128.472C134.575 128.412 134.677 128.382 134.797 128.382H137.155C137.287 128.382 137.401 128.43 137.497 128.526C137.593 128.61 137.641 128.712 137.641 128.832C137.641 129.18 137.491 129.618 137.191 130.146C136.891 130.662 136.381 131.13 135.661 131.55C134.953 131.97 134.017 132.18 132.853 132.18C131.953 132.18 131.137 132.012 130.405 131.676C129.685 131.328 129.103 130.842 128.659 130.218C128.227 129.594 127.999 128.868 127.975 128.04L127.957 127.32L127.975 126.6C127.999 125.772 128.227 125.046 128.659 124.422C129.103 123.798 129.685 123.318 130.405 122.982C131.137 122.634 131.953 122.46 132.853 122.46C134.005 122.46 134.935 122.664 135.643 123.072C136.351 123.48 136.855 123.942 137.155 124.458C137.455 124.974 137.617 125.412 137.641 125.772C137.653 125.904 137.605 126.018 137.497 126.114C137.401 126.21 137.287 126.258 137.155 126.258H134.797C134.677 126.258 134.575 126.228 134.491 126.168C134.419 126.108 134.347 126.018 134.275 125.898C134.131 125.682 133.951 125.52 133.735 125.412C133.519 125.304 133.225 125.25 132.853 125.25C132.385 125.25 132.001 125.382 131.701 125.646C131.413 125.91 131.251 126.258 131.215 126.69C131.203 126.81 131.197 127.02 131.197 127.32C131.197 127.62 131.203 127.83 131.215 127.95ZM147.137 122.64C147.269 122.64 147.383 122.688 147.479 122.784C147.575 122.88 147.623 122.994 147.623 123.126V124.944C147.623 125.076 147.575 125.19 147.479 125.286C147.383 125.382 147.269 125.43 147.137 125.43H144.455V131.514C144.455 131.646 144.407 131.76 144.311 131.856C144.215 131.952 144.101 132 143.969 132H141.701C141.569 132 141.455 131.952 141.359 131.856C141.263 131.76 141.215 131.646 141.215 131.514V125.43H138.533C138.401 125.43 138.287 125.382 138.191 125.286C138.095 125.19 138.047 125.076 138.047 124.944V123.126C138.047 122.994 138.095 122.88 138.191 122.784C138.287 122.688 138.401 122.64 138.533 122.64H147.137ZM149.054 132C148.922 132 148.808 131.952 148.712 131.856C148.616 131.76 148.568 131.646 148.568 131.514V123.126C148.568 122.994 148.616 122.88 148.712 122.784C148.808 122.688 148.922 122.64 149.054 122.64H151.322C151.454 122.64 151.568 122.688 151.664 122.784C151.76 122.88 151.808 122.994 151.808 123.126V124.458H153.608C154.388 124.458 155.09 124.62 155.714 124.944C156.35 125.256 156.848 125.7 157.208 126.276C157.568 126.84 157.748 127.494 157.748 128.238C157.748 128.982 157.568 129.642 157.208 130.218C156.848 130.782 156.35 131.22 155.714 131.532C155.09 131.844 154.388 132 153.608 132H149.054ZM153.284 129.21C153.668 129.21 153.968 129.132 154.184 128.976C154.4 128.82 154.508 128.574 154.508 128.238C154.508 127.902 154.4 127.656 154.184 127.5C153.968 127.332 153.668 127.248 153.284 127.248H151.808V129.21H153.284Z" fill="black"/>
<line x1="60" y1="233" x2="260" y2="233" stroke="black" stroke-width="2"/>
<path d="M72.654 259.12C72.786 259.12 72.9 259.168 72.996 259.264C73.092 259.36 73.14 259.474 73.14 259.606V263.494C73.14 263.626 73.092 263.74 72.996 263.836C72.9 263.932 72.786 263.98 72.654 263.98H70.656C70.524 263.98 70.41 263.932 70.314 263.836C70.218 263.74 70.17 263.626 70.17 263.494V262H61.746C61.614 262 61.5 261.952 61.404 261.856C61.308 261.76 61.26 261.646 61.26 261.514V249.886C61.26 249.754 61.308 249.64 61.404 249.544C61.5 249.448 61.614 249.4 61.746 249.4H64.104C64.236 249.4 64.35 249.448 64.446 249.544C64.542 249.64 64.59 249.754 64.59 249.886V259.12H68.226V249.886C68.226 249.754 68.274 249.64 68.37 249.544C68.466 249.448 68.58 249.4 68.712 249.4H71.07C71.202 249.4 71.316 249.448 71.412 249.544C71.508 249.64 71.556 249.754 71.556 249.886V259.12H72.654ZM74.7374 262C74.6414 262 74.5574 261.964 74.4854 261.892C74.4134 261.82 74.3774 261.736 74.3774 261.64V253C74.3774 252.904 74.4134 252.82 74.4854 252.748C74.5574 252.676 74.6414 252.64 74.7374 252.64H79.9754C80.6834 252.64 81.3254 252.748 81.9014 252.964C82.4774 253.18 82.9274 253.492 83.2514 253.9C83.5874 254.308 83.7554 254.782 83.7554 255.322C83.7554 256.078 83.4974 256.69 82.9814 257.158C83.3294 257.398 83.5754 257.68 83.7194 258.004C83.8634 258.328 83.9354 258.736 83.9354 259.228C83.9354 260.116 83.5934 260.8 82.9094 261.28C82.2374 261.76 81.3494 262 80.2454 262H74.7374ZM77.8334 254.98V256.276H79.4354C79.6874 256.276 79.8734 256.21 79.9934 256.078C80.1254 255.946 80.1914 255.796 80.1914 255.628C80.1914 255.46 80.1254 255.31 79.9934 255.178C79.8734 255.046 79.6874 254.98 79.4354 254.98H77.8334ZM79.5794 259.66C79.8314 259.66 80.0234 259.594 80.1554 259.462C80.2994 259.33 80.3714 259.174 80.3714 258.994C80.3714 258.814 80.2994 258.658 80.1554 258.526C80.0234 258.394 79.8314 258.328 79.5794 258.328H77.8334V259.66H79.5794ZM88.005 258.346C88.005 258.85 88.167 259.21 88.491 259.426C88.815 259.642 89.193 259.75 89.625 259.75C89.961 259.75 90.237 259.714 90.453 259.642C90.669 259.57 90.855 259.468 91.011 259.336C91.143 259.228 91.239 259.162 91.299 259.138C91.359 259.102 91.461 259.084 91.605 259.084H93.945C94.065 259.084 94.161 259.12 94.233 259.192C94.305 259.264 94.341 259.36 94.341 259.48C94.341 259.72 94.161 260.062 93.801 260.506C93.441 260.938 92.907 261.328 92.199 261.676C91.491 262.012 90.633 262.18 89.625 262.18C88.077 262.18 86.877 261.754 86.025 260.902C85.185 260.038 84.765 258.844 84.765 257.32C84.765 256.372 84.951 255.532 85.323 254.8C85.707 254.068 86.265 253.498 86.997 253.09C87.729 252.67 88.605 252.46 89.625 252.46C90.741 252.46 91.659 252.7 92.379 253.18C93.111 253.648 93.645 254.26 93.981 255.016C94.317 255.76 94.485 256.54 94.485 257.356V257.86C94.485 257.992 94.437 258.106 94.341 258.202C94.245 258.298 94.131 258.346 93.999 258.346H88.005ZM91.245 256.348C91.197 255.94 91.029 255.598 90.741 255.322C90.465 255.034 90.093 254.89 89.625 254.89C89.157 254.89 88.779 255.034 88.491 255.322C88.215 255.598 88.053 255.94 88.005 256.348H91.245ZM104.087 252.64C104.219 252.64 104.333 252.688 104.429 252.784C104.525 252.88 104.573 252.994 104.573 253.126V254.944C104.573 255.076 104.525 255.19 104.429 255.286C104.333 255.382 104.219 255.43 104.087 255.43H101.405V261.514C101.405 261.646 101.357 261.76 101.261 261.856C101.165 261.952 101.051 262 100.919 262H98.6506C98.5186 262 98.4046 261.952 98.3086 261.856C98.2126 261.76 98.1646 261.646 98.1646 261.514V255.43H95.4826C95.3506 255.43 95.2366 255.382 95.1406 255.286C95.0446 255.19 94.9966 255.076 94.9966 254.944V253.126C94.9966 252.994 95.0446 252.88 95.1406 252.784C95.2366 252.688 95.3506 252.64 95.4826 252.64H104.087Z" fill="black"/>
<rect x="61" y="287" width="18" height="18" rx="2" stroke="black" stroke-width="2"/>
<path d="M75 291L68.1 297.6L65 294.6V297.9L68.2 301L75 294.3V291Z" fill="black"/>
<path d="M98.24 293.532C98.24 294.311 98.4267 294.881 98.8 295.244C99.184 295.596 99.744 295.772 100.48 295.772H103.216V290.732C103.216 290.615 103.259 290.513 103.344 290.428C103.429 290.343 103.531 290.3 103.648 290.3H104.304C104.421 290.3 104.523 290.343 104.608 290.428C104.693 290.513 104.736 290.615 104.736 290.732V301.068C104.736 301.185 104.693 301.287 104.608 301.372C104.523 301.457 104.421 301.5 104.304 301.5H103.648C103.531 301.5 103.429 301.457 103.344 301.372C103.259 301.287 103.216 301.185 103.216 301.068V297.212H100.336C97.9253 297.212 96.72 296.012 96.72 293.612V290.732C96.72 290.615 96.7627 290.513 96.848 290.428C96.9333 290.343 97.0347 290.3 97.152 290.3H97.808C97.9253 290.3 98.0267 290.343 98.112 290.428C98.1973 290.513 98.24 290.615 98.24 290.732V293.532ZM110.589 293.02C111.731 293.02 112.632 293.383 113.293 294.108C113.955 294.833 114.285 295.82 114.285 297.068V297.5C114.285 297.617 114.243 297.719 114.157 297.804C114.072 297.889 113.971 297.932 113.853 297.932H108.349V298.028C108.371 298.732 108.584 299.287 108.989 299.692C109.405 300.087 109.939 300.284 110.589 300.284C111.123 300.284 111.533 300.215 111.821 300.076C112.12 299.937 112.387 299.74 112.621 299.484C112.707 299.399 112.781 299.34 112.845 299.308C112.92 299.276 113.016 299.26 113.133 299.26H113.613C113.741 299.26 113.848 299.303 113.933 299.388C114.019 299.473 114.056 299.575 114.045 299.692C114.003 299.98 113.843 300.279 113.565 300.588C113.299 300.887 112.909 301.143 112.397 301.356C111.896 301.559 111.293 301.66 110.589 301.66C109.907 301.66 109.299 301.505 108.765 301.196C108.232 300.876 107.805 300.439 107.485 299.884C107.176 299.329 106.989 298.705 106.925 298.012C106.904 297.692 106.893 297.447 106.893 297.276C106.893 297.105 106.904 296.86 106.925 296.54C106.989 295.879 107.176 295.281 107.485 294.748C107.805 294.215 108.227 293.793 108.749 293.484C109.283 293.175 109.896 293.02 110.589 293.02ZM112.845 296.588V296.54C112.845 295.889 112.637 295.372 112.221 294.988C111.816 294.593 111.272 294.396 110.589 294.396C109.971 294.396 109.443 294.593 109.005 294.988C108.579 295.383 108.36 295.9 108.349 296.54V296.588H112.845ZM117.672 304.108C117.672 304.225 117.629 304.327 117.544 304.412C117.458 304.497 117.357 304.54 117.24 304.54H116.648C116.53 304.54 116.429 304.497 116.344 304.412C116.258 304.327 116.216 304.225 116.216 304.108V293.612C116.216 293.495 116.258 293.393 116.344 293.308C116.429 293.223 116.53 293.18 116.648 293.18H117.24C117.357 293.18 117.458 293.223 117.544 293.308C117.629 293.393 117.672 293.495 117.672 293.612V294.108C118.216 293.383 119.042 293.02 120.152 293.02C120.813 293.02 121.41 293.175 121.944 293.484C122.488 293.793 122.92 294.236 123.24 294.812C123.57 295.388 123.752 296.06 123.784 296.828C123.794 296.935 123.8 297.105 123.8 297.34C123.8 297.585 123.794 297.761 123.784 297.868C123.752 298.636 123.57 299.308 123.24 299.884C122.92 300.449 122.493 300.887 121.96 301.196C121.426 301.505 120.824 301.66 120.152 301.66C119.554 301.66 119.048 301.559 118.632 301.356C118.226 301.143 117.906 300.881 117.672 300.572V304.108ZM117.672 297.916C117.704 298.663 117.928 299.244 118.344 299.66C118.76 300.076 119.309 300.284 119.992 300.284C120.685 300.284 121.234 300.06 121.64 299.612C122.056 299.164 122.285 298.556 122.328 297.788C122.338 297.681 122.344 297.532 122.344 297.34C122.344 297.148 122.338 296.999 122.328 296.892C122.285 296.124 122.056 295.516 121.64 295.068C121.234 294.62 120.685 294.396 119.992 294.396C119.33 294.396 118.786 294.604 118.36 295.02C117.933 295.425 117.704 295.969 117.672 296.652L117.656 297.276L117.672 297.916ZM132.77 293.18C132.887 293.18 132.989 293.223 133.074 293.308C133.159 293.393 133.202 293.495 133.202 293.612V301.068C133.202 301.185 133.159 301.287 133.074 301.372C132.989 301.457 132.887 301.5 132.77 301.5H132.178C132.061 301.5 131.959 301.457 131.874 301.372C131.789 301.287 131.746 301.185 131.746 301.068V297.948H127.234V301.068C127.234 301.185 127.191 301.287 127.106 301.372C127.021 301.457 126.919 301.5 126.802 301.5H126.21C126.093 301.5 125.991 301.463 125.906 301.388C125.821 301.303 125.778 301.196 125.778 301.068V293.612C125.778 293.495 125.821 293.393 125.906 293.308C125.991 293.223 126.093 293.18 126.21 293.18H126.802C126.919 293.18 127.021 293.223 127.106 293.308C127.191 293.393 127.234 293.495 127.234 293.612V296.572H131.746V293.612C131.746 293.495 131.789 293.393 131.874 293.308C131.959 293.223 132.061 293.18 132.178 293.18H132.77ZM135.606 293.612C135.606 293.495 135.649 293.393 135.734 293.308C135.82 293.223 135.921 293.18 136.038 293.18H136.63C136.748 293.18 136.849 293.223 136.934 293.308C137.02 293.393 137.062 293.495 137.062 293.612V295.228H138.79C139.462 295.228 140.06 295.361 140.582 295.628C141.116 295.884 141.526 296.252 141.814 296.732C142.102 297.201 142.246 297.745 142.246 298.364C142.246 298.983 142.102 299.532 141.814 300.012C141.526 300.481 141.116 300.849 140.582 301.116C140.06 301.372 139.462 301.5 138.79 301.5H136.038C135.921 301.5 135.82 301.457 135.734 301.372C135.649 301.287 135.606 301.185 135.606 301.068V293.612ZM144.502 301.068C144.502 301.185 144.46 301.287 144.374 301.372C144.289 301.457 144.188 301.5 144.07 301.5H143.478C143.361 301.5 143.26 301.457 143.174 301.372C143.089 301.287 143.046 301.185 143.046 301.068V293.612C143.046 293.495 143.089 293.393 143.174 293.308C143.26 293.223 143.361 293.18 143.478 293.18H144.07C144.188 293.18 144.289 293.223 144.374 293.308C144.46 293.393 144.502 293.495 144.502 293.612V301.068ZM137.062 296.604V300.124H138.566C139.26 300.124 139.804 299.985 140.198 299.708C140.604 299.431 140.806 298.983 140.806 298.364C140.806 297.745 140.604 297.297 140.198 297.02C139.804 296.743 139.26 296.604 138.566 296.604H137.062ZM153.303 301.5C153.186 301.5 153.084 301.457 152.999 301.372C152.914 301.287 152.871 301.185 152.871 301.068V295.708L148.215 301.324C148.13 301.441 148.012 301.5 147.863 301.5H147.319C147.202 301.5 147.1 301.457 147.015 301.372C146.94 301.287 146.903 301.185 146.903 301.068V293.612C146.903 293.495 146.946 293.393 147.031 293.308C147.116 293.223 147.218 293.18 147.335 293.18H147.927C148.044 293.18 148.146 293.223 148.231 293.308C148.316 293.393 148.359 293.495 148.359 293.612V299.02L153.015 293.356C153.068 293.292 153.116 293.249 153.159 293.228C153.212 293.196 153.282 293.18 153.367 293.18H153.895C154.012 293.18 154.114 293.223 154.199 293.308C154.284 293.393 154.327 293.495 154.327 293.612V301.068C154.327 301.185 154.284 301.287 154.199 301.372C154.114 301.457 154.012 301.5 153.895 301.5H153.303ZM148.631 290.044C148.631 289.959 148.658 289.889 148.711 289.836C148.764 289.772 148.839 289.74 148.935 289.74H149.447C149.543 289.74 149.618 289.772 149.671 289.836C149.724 289.889 149.751 289.959 149.751 290.044C149.751 290.321 149.826 290.551 149.975 290.732C150.135 290.913 150.348 291.004 150.615 291.004C150.882 291.004 151.09 290.913 151.239 290.732C151.399 290.551 151.479 290.321 151.479 290.044C151.479 289.959 151.506 289.889 151.559 289.836C151.612 289.772 151.687 289.74 151.783 289.74H152.295C152.391 289.74 152.466 289.772 152.519 289.836C152.572 289.889 152.599 289.959 152.599 290.044C152.599 290.577 152.428 291.047 152.087 291.452C151.746 291.857 151.255 292.06 150.615 292.06C149.975 292.06 149.484 291.857 149.143 291.452C148.802 291.047 148.631 290.577 148.631 290.044Z" fill="black"/>
<rect x="61" y="324" width="18" height="18" rx="2" stroke="black" stroke-width="2"/>
<path d="M75 328L68.1 334.6L65 331.6V334.9L68.2 338L75 331.3V328Z" fill="black"/>
<path d="M102.24 331.716C102.944 331.716 103.552 331.865 104.064 332.164C104.576 332.463 104.965 332.873 105.232 333.396C105.499 333.908 105.632 334.479 105.632 335.108C105.632 335.737 105.499 336.313 105.232 336.836C104.965 337.348 104.576 337.753 104.064 338.052C103.552 338.351 102.944 338.5 102.24 338.5H97.808C97.6907 338.5 97.5893 338.457 97.504 338.372C97.4187 338.287 97.376 338.185 97.376 338.068V327.732C97.376 327.615 97.4187 327.513 97.504 327.428C97.5893 327.343 97.6907 327.3 97.808 327.3H104.496C104.613 327.3 104.709 327.343 104.784 327.428C104.869 327.513 104.912 327.615 104.912 327.732V328.308C104.912 328.425 104.869 328.527 104.784 328.612C104.709 328.697 104.613 328.74 104.496 328.74H98.896V331.716H102.24ZM98.896 333.156V337.06H102C102.672 337.06 103.189 336.879 103.552 336.516C103.925 336.143 104.112 335.673 104.112 335.108C104.112 334.543 103.925 334.079 103.552 333.716C103.189 333.343 102.672 333.156 102 333.156H98.896ZM110.761 330.02C111.903 330.02 112.804 330.383 113.465 331.108C114.127 331.833 114.457 332.82 114.457 334.068V334.5C114.457 334.617 114.415 334.719 114.329 334.804C114.244 334.889 114.143 334.932 114.025 334.932H108.521V335.028C108.543 335.732 108.756 336.287 109.161 336.692C109.577 337.087 110.111 337.284 110.761 337.284C111.295 337.284 111.705 337.215 111.993 337.076C112.292 336.937 112.559 336.74 112.793 336.484C112.879 336.399 112.953 336.34 113.017 336.308C113.092 336.276 113.188 336.26 113.305 336.26H113.785C113.913 336.26 114.02 336.303 114.105 336.388C114.191 336.473 114.228 336.575 114.217 336.692C114.175 336.98 114.015 337.279 113.737 337.588C113.471 337.887 113.081 338.143 112.569 338.356C112.068 338.559 111.465 338.66 110.761 338.66C110.079 338.66 109.471 338.505 108.937 338.196C108.404 337.876 107.977 337.439 107.657 336.884C107.348 336.329 107.161 335.705 107.097 335.012C107.076 334.692 107.065 334.447 107.065 334.276C107.065 334.105 107.076 333.86 107.097 333.54C107.161 332.879 107.348 332.281 107.657 331.748C107.977 331.215 108.399 330.793 108.921 330.484C109.455 330.175 110.068 330.02 110.761 330.02ZM113.017 333.588V333.54C113.017 332.889 112.809 332.372 112.393 331.988C111.988 331.593 111.444 331.396 110.761 331.396C110.143 331.396 109.615 331.593 109.177 331.988C108.751 332.383 108.532 332.9 108.521 333.54V333.588H113.017ZM123.14 330.18C123.257 330.18 123.358 330.223 123.444 330.308C123.529 330.393 123.572 330.495 123.572 330.612V338.068C123.572 338.185 123.529 338.287 123.444 338.372C123.358 338.457 123.257 338.5 123.14 338.5H122.548C122.43 338.5 122.329 338.457 122.244 338.372C122.158 338.287 122.116 338.185 122.116 338.068V331.556H118.772V335.732C118.772 336.671 118.564 337.396 118.148 337.908C117.742 338.409 117.06 338.66 116.1 338.66H115.908C115.79 338.66 115.689 338.617 115.604 338.532C115.518 338.447 115.476 338.345 115.476 338.228V337.716C115.476 337.599 115.518 337.497 115.604 337.412C115.689 337.327 115.79 337.284 115.908 337.284H116.1C116.569 337.284 116.889 337.156 117.06 336.9C117.23 336.633 117.316 336.239 117.316 335.716V330.612C117.316 330.495 117.358 330.393 117.444 330.308C117.529 330.223 117.63 330.18 117.748 330.18H123.14ZM125.966 330.612C125.966 330.495 126.008 330.393 126.094 330.308C126.179 330.223 126.28 330.18 126.398 330.18H126.99C127.107 330.18 127.208 330.223 127.294 330.308C127.379 330.393 127.422 330.495 127.422 330.612V332.228H129.15C129.822 332.228 130.419 332.361 130.942 332.628C131.475 332.884 131.886 333.252 132.174 333.732C132.462 334.201 132.606 334.745 132.606 335.364C132.606 335.983 132.462 336.532 132.174 337.012C131.886 337.481 131.475 337.849 130.942 338.116C130.419 338.372 129.822 338.5 129.15 338.5H126.398C126.28 338.5 126.179 338.457 126.094 338.372C126.008 338.287 125.966 338.185 125.966 338.068V330.612ZM134.862 338.068C134.862 338.185 134.819 338.287 134.734 338.372C134.648 338.457 134.547 338.5 134.43 338.5H133.838C133.72 338.5 133.619 338.457 133.534 338.372C133.448 338.287 133.406 338.185 133.406 338.068V330.612C133.406 330.495 133.448 330.393 133.534 330.308C133.619 330.223 133.72 330.18 133.838 330.18H134.43C134.547 330.18 134.648 330.223 134.734 330.308C134.819 330.393 134.862 330.495 134.862 330.612V338.068ZM127.422 333.604V337.124H128.926C129.619 337.124 130.163 336.985 130.558 336.708C130.963 336.431 131.166 335.983 131.166 335.364C131.166 334.745 130.963 334.297 130.558 334.02C130.163 333.743 129.619 333.604 128.926 333.604H127.422ZM143.663 338.5C143.545 338.5 143.444 338.457 143.359 338.372C143.273 338.287 143.231 338.185 143.231 338.068V332.708L138.575 338.324C138.489 338.441 138.372 338.5 138.223 338.5H137.679C137.561 338.5 137.46 338.457 137.375 338.372C137.3 338.287 137.263 338.185 137.263 338.068V330.612C137.263 330.495 137.305 330.393 137.391 330.308C137.476 330.223 137.577 330.18 137.695 330.18H138.287C138.404 330.18 138.505 330.223 138.591 330.308C138.676 330.393 138.719 330.495 138.719 330.612V336.02L143.375 330.356C143.428 330.292 143.476 330.249 143.519 330.228C143.572 330.196 143.641 330.18 143.727 330.18H144.255C144.372 330.18 144.473 330.223 144.559 330.308C144.644 330.393 144.687 330.495 144.687 330.612V338.068C144.687 338.185 144.644 338.287 144.559 338.372C144.473 338.457 144.372 338.5 144.255 338.5H143.663ZM138.991 327.044C138.991 326.959 139.017 326.889 139.071 326.836C139.124 326.772 139.199 326.74 139.295 326.74H139.807C139.903 326.74 139.977 326.772 140.031 326.836C140.084 326.889 140.111 326.959 140.111 327.044C140.111 327.321 140.185 327.551 140.335 327.732C140.495 327.913 140.708 328.004 140.975 328.004C141.241 328.004 141.449 327.913 141.599 327.732C141.759 327.551 141.839 327.321 141.839 327.044C141.839 326.959 141.865 326.889 141.919 326.836C141.972 326.772 142.047 326.74 142.143 326.74H142.655C142.751 326.74 142.825 326.772 142.879 326.836C142.932 326.889 142.959 326.959 142.959 327.044C142.959 327.577 142.788 328.047 142.447 328.452C142.105 328.857 141.615 329.06 140.975 329.06C140.335 329.06 139.844 328.857 139.503 328.452C139.161 328.047 138.991 327.577 138.991 327.044Z" fill="black"/>
<rect x="61" y="361" width="18" height="18" rx="2" stroke="#CCCCCC" stroke-width="2"/>
<path d="M98.48 371.244C98.512 372.151 98.784 372.876 99.296 373.42C99.8187 373.953 100.544 374.22 101.472 374.22C102.411 374.22 103.104 374.017 103.552 373.612C104 373.207 104.299 372.684 104.448 372.044C104.469 371.937 104.517 371.852 104.592 371.788C104.677 371.724 104.768 371.692 104.864 371.692H105.6C105.696 371.692 105.776 371.729 105.84 371.804C105.915 371.868 105.952 371.948 105.952 372.044C105.931 372.567 105.76 373.111 105.44 373.676C105.12 374.231 104.624 374.7 103.952 375.084C103.291 375.468 102.464 375.66 101.472 375.66C100.576 375.66 99.792 375.473 99.12 375.1C98.448 374.727 97.9253 374.215 97.552 373.564C97.1893 372.903 96.992 372.156 96.96 371.324C96.9493 371.004 96.944 370.529 96.944 369.9C96.944 369.271 96.9493 368.796 96.96 368.476C96.992 367.644 97.1893 366.903 97.552 366.252C97.9253 365.591 98.448 365.073 99.12 364.7C99.792 364.327 100.576 364.14 101.472 364.14C102.464 364.14 103.291 364.332 103.952 364.716C104.624 365.1 105.12 365.575 105.44 366.14C105.76 366.695 105.931 367.233 105.952 367.756C105.952 367.852 105.915 367.937 105.84 368.012C105.776 368.076 105.696 368.108 105.6 368.108H104.864C104.768 368.108 104.677 368.076 104.592 368.012C104.517 367.948 104.469 367.863 104.448 367.756C104.299 367.116 104 366.593 103.552 366.188C103.104 365.783 102.411 365.58 101.472 365.58C100.544 365.58 99.8187 365.852 99.296 366.396C98.784 366.929 98.512 367.649 98.48 368.556C98.4693 368.876 98.464 369.324 98.464 369.9C98.464 370.476 98.4693 370.924 98.48 371.244ZM114.272 375.5C114.155 375.5 114.053 375.457 113.968 375.372C113.883 375.287 113.84 375.185 113.84 375.068V369.708L109.184 375.324C109.099 375.441 108.981 375.5 108.832 375.5H108.288C108.171 375.5 108.069 375.457 107.984 375.372C107.909 375.287 107.872 375.185 107.872 375.068V367.612C107.872 367.495 107.915 367.393 108 367.308C108.085 367.223 108.187 367.18 108.304 367.18H108.896C109.013 367.18 109.115 367.223 109.2 367.308C109.285 367.393 109.328 367.495 109.328 367.612V373.02L113.984 367.356C114.037 367.292 114.085 367.249 114.128 367.228C114.181 367.196 114.251 367.18 114.336 367.18H114.864C114.981 367.18 115.083 367.223 115.168 367.308C115.253 367.393 115.296 367.495 115.296 367.612V375.068C115.296 375.185 115.253 375.287 115.168 375.372C115.083 375.457 114.981 375.5 114.864 375.5H114.272ZM124.692 367.18C124.809 367.18 124.911 367.223 124.996 367.308C125.081 367.393 125.124 367.495 125.124 367.612V375.068C125.124 375.185 125.081 375.287 124.996 375.372C124.911 375.457 124.809 375.5 124.692 375.5H124.1C123.983 375.5 123.881 375.457 123.796 375.372C123.711 375.287 123.668 375.185 123.668 375.068V371.948H119.156V375.068C119.156 375.185 119.113 375.287 119.028 375.372C118.943 375.457 118.841 375.5 118.724 375.5H118.132C118.015 375.5 117.913 375.463 117.828 375.388C117.743 375.303 117.7 375.196 117.7 375.068V367.612C117.7 367.495 117.743 367.393 117.828 367.308C117.913 367.223 118.015 367.18 118.132 367.18H118.724C118.841 367.18 118.943 367.223 119.028 367.308C119.113 367.393 119.156 367.495 119.156 367.612V370.572H123.668V367.612C123.668 367.495 123.711 367.393 123.796 367.308C123.881 367.223 123.983 367.18 124.1 367.18H124.692ZM133.928 375.5C133.811 375.5 133.709 375.457 133.624 375.372C133.539 375.287 133.496 375.185 133.496 375.068V369.708L128.84 375.324C128.755 375.441 128.637 375.5 128.488 375.5H127.944C127.827 375.5 127.725 375.457 127.64 375.372C127.565 375.287 127.528 375.185 127.528 375.068V367.612C127.528 367.495 127.571 367.393 127.656 367.308C127.741 367.223 127.843 367.18 127.96 367.18H128.552C128.669 367.18 128.771 367.223 128.856 367.308C128.941 367.393 128.984 367.495 128.984 367.612V373.02L133.64 367.356C133.693 367.292 133.741 367.249 133.784 367.228C133.837 367.196 133.907 367.18 133.992 367.18H134.52C134.637 367.18 134.739 367.223 134.824 367.308C134.909 367.393 134.952 367.495 134.952 367.612V375.068C134.952 375.185 134.909 375.287 134.824 375.372C134.739 375.457 134.637 375.5 134.52 375.5H133.928ZM143.756 375.5C143.639 375.5 143.538 375.457 143.452 375.372C143.367 375.287 143.324 375.185 143.324 375.068V369.708L138.668 375.324C138.583 375.441 138.466 375.5 138.316 375.5H137.772C137.655 375.5 137.554 375.457 137.468 375.372C137.394 375.287 137.356 375.185 137.356 375.068V367.612C137.356 367.495 137.399 367.393 137.484 367.308C137.57 367.223 137.671 367.18 137.788 367.18H138.38C138.498 367.18 138.599 367.223 138.684 367.308C138.77 367.393 138.812 367.495 138.812 367.612V373.02L143.468 367.356C143.522 367.292 143.57 367.249 143.612 367.228C143.666 367.196 143.735 367.18 143.82 367.18H144.348C144.466 367.18 144.567 367.223 144.652 367.308C144.738 367.393 144.78 367.495 144.78 367.612V375.068C144.78 375.185 144.738 375.287 144.652 375.372C144.567 375.457 144.466 375.5 144.348 375.5H143.756ZM139.084 364.044C139.084 363.959 139.111 363.889 139.164 363.836C139.218 363.772 139.292 363.74 139.388 363.74H139.9C139.996 363.74 140.071 363.772 140.124 363.836C140.178 363.889 140.204 363.959 140.204 364.044C140.204 364.321 140.279 364.551 140.428 364.732C140.588 364.913 140.802 365.004 141.068 365.004C141.335 365.004 141.543 364.913 141.692 364.732C141.852 364.551 141.932 364.321 141.932 364.044C141.932 363.959 141.959 363.889 142.012 363.836C142.066 363.772 142.14 363.74 142.236 363.74H142.748C142.844 363.74 142.919 363.772 142.972 363.836C143.026 363.889 143.052 363.959 143.052 364.044C143.052 364.577 142.882 365.047 142.54 365.452C142.199 365.857 141.708 366.06 141.068 366.06C140.428 366.06 139.938 365.857 139.596 365.452C139.255 365.047 139.084 364.577 139.084 364.044Z" fill="black"/>
<rect x="61" y="398" width="18" height="18" rx="2" stroke="#CCCCCC" stroke-width="2"/>
<path d="M105.184 411.86C105.291 411.967 105.344 412.063 105.344 412.148C105.344 412.244 105.307 412.329 105.232 412.404C105.168 412.468 105.088 412.5 104.992 412.5H104C103.776 412.5 103.584 412.42 103.424 412.26L98.896 407.94V412.068C98.896 412.185 98.8533 412.287 98.768 412.372C98.6827 412.457 98.5813 412.5 98.464 412.5H97.808C97.6907 412.5 97.5893 412.457 97.504 412.372C97.4187 412.287 97.376 412.185 97.376 412.068V401.732C97.376 401.615 97.4187 401.513 97.504 401.428C97.5893 401.343 97.6907 401.3 97.808 401.3H98.464C98.5813 401.3 98.6827 401.343 98.768 401.428C98.8533 401.513 98.896 401.615 98.896 401.732V405.46L103.168 401.54C103.328 401.38 103.52 401.3 103.744 401.3H104.672C104.768 401.3 104.848 401.337 104.912 401.412C104.987 401.476 105.024 401.556 105.024 401.652C105.024 401.737 104.971 401.833 104.864 401.94L99.728 406.66L105.184 411.86ZM108.234 415.108C108.234 415.225 108.191 415.327 108.106 415.412C108.021 415.497 107.919 415.54 107.802 415.54H107.21C107.093 415.54 106.991 415.497 106.906 415.412C106.821 415.327 106.778 415.225 106.778 415.108V404.612C106.778 404.495 106.821 404.393 106.906 404.308C106.991 404.223 107.093 404.18 107.21 404.18H107.802C107.919 404.18 108.021 404.223 108.106 404.308C108.191 404.393 108.234 404.495 108.234 404.612V405.108C108.778 404.383 109.605 404.02 110.714 404.02C111.375 404.02 111.973 404.175 112.506 404.484C113.05 404.793 113.482 405.236 113.802 405.812C114.133 406.388 114.314 407.06 114.346 407.828C114.357 407.935 114.362 408.105 114.362 408.34C114.362 408.585 114.357 408.761 114.346 408.868C114.314 409.636 114.133 410.308 113.802 410.884C113.482 411.449 113.055 411.887 112.522 412.196C111.989 412.505 111.386 412.66 110.714 412.66C110.117 412.66 109.61 412.559 109.194 412.356C108.789 412.143 108.469 411.881 108.234 411.572V415.108ZM108.234 408.916C108.266 409.663 108.49 410.244 108.906 410.66C109.322 411.076 109.871 411.284 110.554 411.284C111.247 411.284 111.797 411.06 112.202 410.612C112.618 410.164 112.847 409.556 112.89 408.788C112.901 408.681 112.906 408.532 112.906 408.34C112.906 408.148 112.901 407.999 112.89 407.892C112.847 407.124 112.618 406.516 112.202 406.068C111.797 405.62 111.247 405.396 110.554 405.396C109.893 405.396 109.349 405.604 108.922 406.02C108.495 406.425 108.266 406.969 108.234 407.652L108.218 408.276L108.234 408.916ZM121.285 407.236V407.028C121.285 406.505 121.109 406.105 120.757 405.828C120.415 405.54 119.967 405.396 119.413 405.396C118.986 405.396 118.65 405.471 118.405 405.62C118.17 405.759 117.946 405.972 117.733 406.26C117.669 406.345 117.599 406.404 117.525 406.436C117.45 406.468 117.349 406.484 117.221 406.484H116.741C116.623 406.484 116.517 406.441 116.421 406.356C116.335 406.271 116.298 406.169 116.309 406.052C116.341 405.732 116.495 405.417 116.773 405.108C117.061 404.788 117.439 404.527 117.909 404.324C118.378 404.121 118.879 404.02 119.413 404.02C120.405 404.02 121.205 404.297 121.813 404.852C122.431 405.407 122.741 406.185 122.741 407.188V412.068C122.741 412.185 122.698 412.287 122.613 412.372C122.527 412.457 122.426 412.5 122.309 412.5H121.717C121.599 412.5 121.498 412.457 121.413 412.372C121.327 412.287 121.285 412.185 121.285 412.068V411.412C121.114 411.796 120.751 412.1 120.197 412.324C119.642 412.548 119.087 412.66 118.533 412.66C117.989 412.66 117.503 412.564 117.077 412.372C116.65 412.169 116.319 411.897 116.085 411.556C115.861 411.215 115.749 410.831 115.749 410.404C115.749 409.604 116.047 408.98 116.645 408.532C117.242 408.073 118.037 407.764 119.029 407.604L121.285 407.236ZM121.285 408.516L119.397 408.82C118.703 408.927 118.165 409.103 117.781 409.348C117.397 409.583 117.205 409.881 117.205 410.244C117.205 410.511 117.327 410.751 117.573 410.964C117.818 411.177 118.191 411.284 118.693 411.284C119.461 411.284 120.085 411.065 120.565 410.628C121.045 410.191 121.285 409.62 121.285 408.916V408.516ZM128.435 411.284C129.502 411.284 130.222 410.868 130.595 410.036C130.67 409.876 130.744 409.764 130.819 409.7C130.894 409.636 130.995 409.604 131.123 409.604H131.603C131.72 409.604 131.822 409.647 131.907 409.732C131.992 409.807 132.035 409.897 132.035 410.004C132.035 410.367 131.891 410.756 131.603 411.172C131.315 411.588 130.899 411.94 130.355 412.228C129.811 412.516 129.171 412.66 128.435 412.66C127.678 412.66 127.022 412.5 126.467 412.18C125.912 411.86 125.486 411.423 125.187 410.868C124.888 410.303 124.723 409.673 124.691 408.98C124.68 408.852 124.675 408.607 124.675 408.244C124.675 407.988 124.68 407.807 124.691 407.7C124.787 406.612 125.155 405.727 125.795 405.044C126.435 404.361 127.315 404.02 128.435 404.02C129.171 404.02 129.806 404.164 130.339 404.452C130.883 404.729 131.294 405.076 131.571 405.492C131.859 405.897 132.014 406.281 132.035 406.644C132.046 406.761 132.003 406.863 131.907 406.948C131.822 407.033 131.72 407.076 131.603 407.076H131.123C130.995 407.076 130.894 407.044 130.819 406.98C130.744 406.916 130.67 406.804 130.595 406.644C130.222 405.812 129.502 405.396 128.435 405.396C127.848 405.396 127.336 405.593 126.899 405.988C126.462 406.383 126.211 406.98 126.147 407.78C126.136 407.897 126.131 408.089 126.131 408.356C126.131 408.601 126.136 408.783 126.147 408.9C126.222 409.7 126.472 410.297 126.899 410.692C127.336 411.087 127.848 411.284 128.435 411.284ZM140.942 404.18C141.059 404.18 141.161 404.223 141.246 404.308C141.331 404.393 141.374 404.495 141.374 404.612V412.068C141.374 412.185 141.331 412.287 141.246 412.372C141.161 412.457 141.059 412.5 140.942 412.5H140.35C140.233 412.5 140.131 412.457 140.046 412.372C139.961 412.287 139.918 412.185 139.918 412.068V408.948H135.406V412.068C135.406 412.185 135.363 412.287 135.278 412.372C135.193 412.457 135.091 412.5 134.974 412.5H134.382C134.265 412.5 134.163 412.463 134.078 412.388C133.993 412.303 133.95 412.196 133.95 412.068V404.612C133.95 404.495 133.993 404.393 134.078 404.308C134.163 404.223 134.265 404.18 134.382 404.18H134.974C135.091 404.18 135.193 404.223 135.278 404.308C135.363 404.393 135.406 404.495 135.406 404.612V407.572H139.918V404.612C139.918 404.495 139.961 404.393 140.046 404.308C140.131 404.223 140.233 404.18 140.35 404.18H140.942ZM143.778 404.612C143.778 404.495 143.821 404.393 143.906 404.308C143.991 404.223 144.093 404.18 144.21 404.18H144.802C144.919 404.18 145.021 404.223 145.106 404.308C145.191 404.393 145.234 404.495 145.234 404.612V406.228H146.962C147.634 406.228 148.231 406.361 148.754 406.628C149.287 406.884 149.698 407.252 149.986 407.732C150.274 408.201 150.418 408.745 150.418 409.364C150.418 409.983 150.274 410.532 149.986 411.012C149.698 411.481 149.287 411.849 148.754 412.116C148.231 412.372 147.634 412.5 146.962 412.5H144.21C144.093 412.5 143.991 412.457 143.906 412.372C143.821 412.287 143.778 412.185 143.778 412.068V404.612ZM152.674 412.068C152.674 412.185 152.631 412.287 152.546 412.372C152.461 412.457 152.359 412.5 152.242 412.5H151.65C151.533 412.5 151.431 412.457 151.346 412.372C151.261 412.287 151.218 412.185 151.218 412.068V404.612C151.218 404.495 151.261 404.393 151.346 404.308C151.431 404.223 151.533 404.18 151.65 404.18H152.242C152.359 404.18 152.461 404.223 152.546 404.308C152.631 404.393 152.674 404.495 152.674 404.612V412.068ZM145.234 407.604V411.124H146.738C147.431 411.124 147.975 410.985 148.37 410.708C148.775 410.431 148.978 409.983 148.978 409.364C148.978 408.745 148.775 408.297 148.37 408.02C147.975 407.743 147.431 407.604 146.738 407.604H145.234ZM161.475 412.5C161.358 412.5 161.256 412.457 161.171 412.372C161.086 412.287 161.043 412.185 161.043 412.068V406.708L156.387 412.324C156.302 412.441 156.184 412.5 156.035 412.5H155.491C155.374 412.5 155.272 412.457 155.187 412.372C155.112 412.287 155.075 412.185 155.075 412.068V404.612C155.075 404.495 155.118 404.393 155.203 404.308C155.288 404.223 155.39 404.18 155.507 404.18H156.099C156.216 404.18 156.318 404.223 156.403 404.308C156.488 404.393 156.531 404.495 156.531 404.612V410.02L161.187 404.356C161.24 404.292 161.288 404.249 161.331 404.228C161.384 404.196 161.454 404.18 161.539 404.18H162.067C162.184 404.18 162.286 404.223 162.371 404.308C162.456 404.393 162.499 404.495 162.499 404.612V412.068C162.499 412.185 162.456 412.287 162.371 412.372C162.286 412.457 162.184 412.5 162.067 412.5H161.475ZM156.803 401.044C156.803 400.959 156.83 400.889 156.883 400.836C156.936 400.772 157.011 400.74 157.107 400.74H157.619C157.715 400.74 157.79 400.772 157.843 400.836C157.896 400.889 157.923 400.959 157.923 401.044C157.923 401.321 157.998 401.551 158.147 401.732C158.307 401.913 158.52 402.004 158.787 402.004C159.054 402.004 159.262 401.913 159.411 401.732C159.571 401.551 159.651 401.321 159.651 401.044C159.651 400.959 159.678 400.889 159.731 400.836C159.784 400.772 159.859 400.74 159.955 400.74H160.467C160.563 400.74 160.638 400.772 160.691 400.836C160.744 400.889 160.771 400.959 160.771 401.044C160.771 401.577 160.6 402.047 160.259 402.452C159.918 402.857 159.427 403.06 158.787 403.06C158.147 403.06 157.656 402.857 157.315 402.452C156.974 402.047 156.803 401.577 156.803 401.044Z" fill="black"/>
<rect x="61" y="435" width="18" height="18" rx="2" stroke="#CCCCCC" stroke-width="2"/>
<path d="M101.715 438.3C102.824 438.3 103.742 438.588 104.467 439.164C105.203 439.74 105.571 440.583 105.571 441.692C105.571 442.439 105.395 443.073 105.043 443.596C104.702 444.119 104.238 444.508 103.651 444.764C103.075 445.02 102.43 445.148 101.715 445.148H98.771V449.068C98.771 449.185 98.7283 449.287 98.643 449.372C98.5577 449.457 98.4563 449.5 98.339 449.5H97.683C97.5657 449.5 97.4643 449.457 97.379 449.372C97.2937 449.287 97.251 449.185 97.251 449.068V438.732C97.251 438.615 97.2937 438.513 97.379 438.428C97.4643 438.343 97.5657 438.3 97.683 438.3H101.715ZM101.635 443.708C102.414 443.708 103.011 443.543 103.427 443.212C103.843 442.871 104.051 442.364 104.051 441.692C104.051 440.391 103.246 439.74 101.635 439.74H98.771V443.708H101.635ZM114.509 444.588C114.531 444.823 114.541 445.079 114.541 445.356C114.541 445.612 114.531 445.857 114.509 446.092C114.413 447.18 114.035 448.049 113.373 448.7C112.723 449.34 111.837 449.66 110.717 449.66C109.597 449.66 108.707 449.34 108.045 448.7C107.395 448.049 107.021 447.18 106.925 446.092C106.915 445.975 106.909 445.729 106.909 445.356C106.909 444.961 106.915 444.705 106.925 444.588C107.011 443.5 107.384 442.636 108.045 441.996C108.707 441.345 109.597 441.02 110.717 441.02C111.837 441.02 112.728 441.345 113.389 441.996C114.051 442.636 114.424 443.5 114.509 444.588ZM113.053 444.668C112.989 443.985 112.76 443.436 112.365 443.02C111.981 442.604 111.432 442.396 110.717 442.396C110.003 442.396 109.448 442.604 109.053 443.02C108.669 443.436 108.445 443.985 108.381 444.668C108.371 444.796 108.365 445.025 108.365 445.356C108.365 445.676 108.371 445.895 108.381 446.012C108.445 446.695 108.669 447.244 109.053 447.66C109.448 448.076 110.003 448.284 110.717 448.284C111.432 448.284 111.981 448.076 112.365 447.66C112.76 447.244 112.989 446.695 113.053 446.012C113.075 445.777 113.085 445.559 113.085 445.356C113.085 445.153 113.075 444.924 113.053 444.668ZM119.36 448.284C120.629 448.284 121.264 447.905 121.264 447.148C121.264 446.764 121.098 446.481 120.768 446.3C120.448 446.108 120.021 446.012 119.488 446.012H118.24C118.122 446.012 118.021 445.969 117.936 445.884C117.85 445.799 117.808 445.697 117.808 445.58V445.068C117.808 444.951 117.85 444.849 117.936 444.764C118.021 444.679 118.122 444.636 118.24 444.636H119.504C119.973 444.636 120.357 444.54 120.656 444.348C120.965 444.156 121.12 443.879 121.12 443.516C121.12 443.143 120.954 442.865 120.624 442.684C120.304 442.492 119.882 442.396 119.36 442.396C118.88 442.396 118.506 442.471 118.24 442.62C117.973 442.759 117.76 442.993 117.6 443.324C117.461 443.612 117.285 443.756 117.072 443.756H116.592C116.474 443.756 116.368 443.713 116.272 443.628C116.186 443.543 116.149 443.441 116.16 443.324C116.181 442.919 116.314 442.54 116.56 442.188C116.816 441.836 117.184 441.553 117.664 441.34C118.144 441.127 118.709 441.02 119.36 441.02C120.298 441.02 121.066 441.233 121.664 441.66C122.272 442.087 122.576 442.705 122.576 443.516C122.576 444.231 122.325 444.812 121.824 445.26C122.421 445.697 122.72 446.327 122.72 447.148C122.72 448.033 122.41 448.673 121.792 449.068C121.184 449.463 120.373 449.66 119.36 449.66C118.304 449.66 117.488 449.457 116.912 449.052C116.336 448.636 116.032 448.124 116 447.516C115.989 447.399 116.026 447.297 116.112 447.212C116.208 447.127 116.314 447.084 116.432 447.084H116.912C117.029 447.084 117.125 447.116 117.2 447.18C117.274 447.233 117.354 447.345 117.44 447.516C117.6 447.825 117.834 448.033 118.144 448.14C118.453 448.236 118.858 448.284 119.36 448.284ZM131.947 444.588C131.968 444.823 131.979 445.079 131.979 445.356C131.979 445.612 131.968 445.857 131.947 446.092C131.851 447.18 131.472 448.049 130.811 448.7C130.16 449.34 129.275 449.66 128.155 449.66C127.035 449.66 126.144 449.34 125.483 448.7C124.832 448.049 124.459 447.18 124.363 446.092C124.352 445.975 124.347 445.729 124.347 445.356C124.347 444.961 124.352 444.705 124.363 444.588C124.448 443.5 124.822 442.636 125.483 441.996C126.144 441.345 127.035 441.02 128.155 441.02C129.275 441.02 130.166 441.345 130.827 441.996C131.488 442.636 131.862 443.5 131.947 444.588ZM130.491 444.668C130.427 443.985 130.198 443.436 129.803 443.02C129.419 442.604 128.87 442.396 128.155 442.396C127.44 442.396 126.886 442.604 126.491 443.02C126.107 443.436 125.883 443.985 125.819 444.668C125.808 444.796 125.803 445.025 125.803 445.356C125.803 445.676 125.808 445.895 125.819 446.012C125.883 446.695 126.107 447.244 126.491 447.66C126.886 448.076 127.44 448.284 128.155 448.284C128.87 448.284 129.419 448.076 129.803 447.66C130.198 447.244 130.427 446.695 130.491 446.012C130.512 445.777 130.523 445.559 130.523 445.356C130.523 445.153 130.512 444.924 130.491 444.668ZM133.981 441.5C133.981 441.415 134.013 441.34 134.077 441.276C134.141 441.212 134.216 441.18 134.301 441.18H138.269C139.176 441.18 139.885 441.383 140.397 441.788C140.92 442.193 141.181 442.732 141.181 443.404C141.181 443.841 141.096 444.193 140.925 444.46C140.755 444.716 140.52 444.956 140.221 445.18C140.637 445.415 140.931 445.692 141.101 446.012C141.272 446.321 141.357 446.695 141.357 447.132C141.357 447.879 141.096 448.46 140.573 448.876C140.051 449.292 139.341 449.5 138.445 449.5H134.301C134.216 449.5 134.141 449.468 134.077 449.404C134.013 449.34 133.981 449.265 133.981 449.18V441.5ZM135.437 444.604H138.061C138.616 444.604 139.032 444.529 139.309 444.38C139.587 444.22 139.725 443.948 139.725 443.564C139.725 443.18 139.581 442.919 139.293 442.78C139.005 442.641 138.568 442.572 137.981 442.572H135.437V444.604ZM135.437 448.108H138.141C139.315 448.108 139.901 447.751 139.901 447.036C139.901 446.652 139.757 446.385 139.469 446.236C139.181 446.076 138.755 445.996 138.189 445.996H135.437V448.108ZM143.388 441.612C143.388 441.495 143.43 441.393 143.516 441.308C143.601 441.223 143.702 441.18 143.82 441.18H144.412C144.529 441.18 144.63 441.223 144.716 441.308C144.801 441.393 144.844 441.495 144.844 441.612V443.228H146.572C147.244 443.228 147.841 443.361 148.364 443.628C148.897 443.884 149.308 444.252 149.596 444.732C149.884 445.201 150.028 445.745 150.028 446.364C150.028 446.983 149.884 447.532 149.596 448.012C149.308 448.481 148.897 448.849 148.364 449.116C147.841 449.372 147.244 449.5 146.572 449.5H143.82C143.702 449.5 143.601 449.457 143.516 449.372C143.43 449.287 143.388 449.185 143.388 449.068V441.612ZM152.284 449.068C152.284 449.185 152.241 449.287 152.156 449.372C152.07 449.457 151.969 449.5 151.852 449.5H151.26C151.142 449.5 151.041 449.457 150.956 449.372C150.87 449.287 150.828 449.185 150.828 449.068V441.612C150.828 441.495 150.87 441.393 150.956 441.308C151.041 441.223 151.142 441.18 151.26 441.18H151.852C151.969 441.18 152.07 441.223 152.156 441.308C152.241 441.393 152.284 441.495 152.284 441.612V449.068ZM144.844 444.604V448.124H146.348C147.041 448.124 147.585 447.985 147.98 447.708C148.385 447.431 148.588 446.983 148.588 446.364C148.588 445.745 148.385 445.297 147.98 445.02C147.585 444.743 147.041 444.604 146.348 444.604H144.844ZM161.084 449.5C160.967 449.5 160.866 449.457 160.78 449.372C160.695 449.287 160.652 449.185 160.652 449.068V443.708L155.996 449.324C155.911 449.441 155.794 449.5 155.644 449.5H155.1C154.983 449.5 154.882 449.457 154.796 449.372C154.722 449.287 154.684 449.185 154.684 449.068V441.612C154.684 441.495 154.727 441.393 154.812 441.308C154.898 441.223 154.999 441.18 155.116 441.18H155.708C155.826 441.18 155.927 441.223 156.012 441.308C156.098 441.393 156.14 441.495 156.14 441.612V447.02L160.796 441.356C160.85 441.292 160.898 441.249 160.94 441.228C160.994 441.196 161.063 441.18 161.148 441.18H161.676C161.794 441.18 161.895 441.223 161.98 441.308C162.066 441.393 162.108 441.495 162.108 441.612V449.068C162.108 449.185 162.066 449.287 161.98 449.372C161.895 449.457 161.794 449.5 161.676 449.5H161.084ZM156.412 438.044C156.412 437.959 156.439 437.889 156.492 437.836C156.546 437.772 156.62 437.74 156.716 437.74H157.228C157.324 437.74 157.399 437.772 157.452 437.836C157.506 437.889 157.532 437.959 157.532 438.044C157.532 438.321 157.607 438.551 157.756 438.732C157.916 438.913 158.13 439.004 158.396 439.004C158.663 439.004 158.871 438.913 159.02 438.732C159.18 438.551 159.26 438.321 159.26 438.044C159.26 437.959 159.287 437.889 159.34 437.836C159.394 437.772 159.468 437.74 159.564 437.74H160.076C160.172 437.74 160.247 437.772 160.3 437.836C160.354 437.889 160.38 437.959 160.38 438.044C160.38 438.577 160.21 439.047 159.868 439.452C159.527 439.857 159.036 440.06 158.396 440.06C157.756 440.06 157.266 439.857 156.924 439.452C156.583 439.047 156.412 438.577 156.412 438.044Z" fill="black"/>
<line x1="60" y1="488" x2="260" y2="488" stroke="black" stroke-width="2"/>
<path d="M61.746 517C61.614 517 61.5 516.952 61.404 516.856C61.308 516.76 61.26 516.646 61.26 516.514V504.886C61.26 504.754 61.308 504.64 61.404 504.544C61.5 504.448 61.614 504.4 61.746 504.4H67.542C68.562 504.4 69.39 504.58 70.026 504.94C70.662 505.3 71.118 505.762 71.394 506.326C71.682 506.878 71.826 507.484 71.826 508.144C71.826 508.744 71.718 509.23 71.502 509.602C71.298 509.962 71.07 510.238 70.818 510.43C71.274 510.742 71.598 511.114 71.79 511.546C71.982 511.966 72.078 512.482 72.078 513.094C72.078 514.21 71.742 515.14 71.07 515.884C70.398 516.628 69.348 517 67.92 517H61.746ZM64.59 507.19V509.242H67.38C67.74 509.242 68.01 509.152 68.19 508.972C68.382 508.792 68.478 508.54 68.478 508.216C68.478 507.892 68.382 507.64 68.19 507.46C68.01 507.28 67.74 507.19 67.38 507.19H64.59ZM67.56 514.21C67.92 514.21 68.208 514.108 68.424 513.904C68.64 513.7 68.748 513.436 68.748 513.112C68.748 512.788 68.64 512.524 68.424 512.32C68.208 512.116 67.92 512.014 67.56 512.014H64.59V514.21H67.56ZM76.7385 516.514C76.7385 516.646 76.6905 516.76 76.5945 516.856C76.4985 516.952 76.3845 517 76.2525 517H73.9845C73.8525 517 73.7385 516.952 73.6425 516.856C73.5465 516.76 73.4985 516.646 73.4985 516.514V504.706C73.4985 504.574 73.5465 504.46 73.6425 504.364C73.7385 504.268 73.8525 504.22 73.9845 504.22H76.2525C76.3845 504.22 76.4985 504.268 76.5945 504.364C76.6905 504.46 76.7385 504.574 76.7385 504.706V516.514ZM78.3746 508.126C78.3746 507.994 78.4226 507.88 78.5186 507.784C78.6146 507.688 78.7286 507.64 78.8606 507.64H81.1286C81.2606 507.64 81.3746 507.688 81.4706 507.784C81.5666 507.88 81.6146 507.994 81.6146 508.126V512.68C81.6146 513.22 81.7346 513.64 81.9746 513.94C82.2146 514.24 82.5866 514.39 83.0906 514.39C84.0626 514.39 84.5486 513.82 84.5486 512.68V508.126C84.5486 507.994 84.5966 507.88 84.6926 507.784C84.7886 507.688 84.9026 507.64 85.0346 507.64H87.3026C87.4346 507.64 87.5486 507.688 87.6446 507.784C87.7406 507.88 87.7886 507.994 87.7886 508.126V516.514C87.7886 516.646 87.7406 516.76 87.6446 516.856C87.5486 516.952 87.4346 517 87.3026 517H85.2146C85.0826 517 84.9686 516.952 84.8726 516.856C84.7766 516.76 84.7286 516.646 84.7286 516.514V516.1C84.4766 516.412 84.1526 516.67 83.7566 516.874C83.3726 517.078 82.8506 517.18 82.1906 517.18C80.9906 517.18 80.0546 516.838 79.3826 516.154C78.7106 515.47 78.3746 514.444 78.3746 513.076V508.126ZM92.2505 513.346C92.2505 513.85 92.4125 514.21 92.7365 514.426C93.0605 514.642 93.4385 514.75 93.8705 514.75C94.2065 514.75 94.4825 514.714 94.6985 514.642C94.9145 514.57 95.1005 514.468 95.2565 514.336C95.3885 514.228 95.4845 514.162 95.5445 514.138C95.6045 514.102 95.7065 514.084 95.8505 514.084H98.1905C98.3105 514.084 98.4065 514.12 98.4785 514.192C98.5505 514.264 98.5865 514.36 98.5865 514.48C98.5865 514.72 98.4065 515.062 98.0465 515.506C97.6865 515.938 97.1525 516.328 96.4445 516.676C95.7365 517.012 94.8785 517.18 93.8705 517.18C92.3225 517.18 91.1225 516.754 90.2705 515.902C89.4305 515.038 89.0105 513.844 89.0105 512.32C89.0105 511.372 89.1965 510.532 89.5685 509.8C89.9525 509.068 90.5105 508.498 91.2425 508.09C91.9745 507.67 92.8505 507.46 93.8705 507.46C94.9865 507.46 95.9045 507.7 96.6245 508.18C97.3565 508.648 97.8905 509.26 98.2265 510.016C98.5625 510.76 98.7305 511.54 98.7305 512.356V512.86C98.7305 512.992 98.6825 513.106 98.5865 513.202C98.4905 513.298 98.3765 513.346 98.2445 513.346H92.2505ZM95.4905 511.348C95.4425 510.94 95.2745 510.598 94.9865 510.322C94.7105 510.034 94.3385 509.89 93.8705 509.89C93.4025 509.89 93.0245 510.034 92.7365 510.322C92.4605 510.598 92.2985 510.94 92.2505 511.348H95.4905ZM104.318 513.346C104.318 513.922 104.576 514.21 105.092 514.21H106.532C106.664 514.21 106.778 514.258 106.874 514.354C106.97 514.45 107.018 514.564 107.018 514.696V516.514C107.018 516.646 106.97 516.76 106.874 516.856C106.778 516.952 106.664 517 106.532 517H104.822C103.682 517 102.77 516.682 102.086 516.046C101.414 515.41 101.078 514.546 101.078 513.454V510.43H99.7461C99.6141 510.43 99.5001 510.382 99.4041 510.286C99.3081 510.19 99.2601 510.076 99.2601 509.944V508.126C99.2601 507.994 99.3081 507.88 99.4041 507.784C99.5001 507.688 99.6141 507.64 99.7461 507.64H101.078V504.706C101.078 504.574 101.126 504.46 101.222 504.364C101.318 504.268 101.432 504.22 101.564 504.22H103.832C103.964 504.22 104.078 504.268 104.174 504.364C104.27 504.46 104.318 504.574 104.318 504.706V507.64H106.352C106.484 507.64 106.598 507.688 106.694 507.784C106.79 507.88 106.838 507.994 106.838 508.126V509.944C106.838 510.076 106.79 510.19 106.694 510.286C106.598 510.382 106.484 510.43 106.352 510.43H104.318V513.346ZM117.578 513.022C117.542 513.79 117.32 514.492 116.912 515.128C116.504 515.752 115.934 516.25 115.202 516.622C114.47 516.994 113.63 517.18 112.682 517.18C111.734 517.18 110.894 516.994 110.162 516.622C109.43 516.25 108.86 515.752 108.452 515.128C108.044 514.492 107.822 513.79 107.786 513.022L107.768 512.32L107.786 511.636C107.81 510.868 108.026 510.166 108.434 509.53C108.842 508.894 109.412 508.39 110.144 508.018C110.888 507.646 111.734 507.46 112.682 507.46C113.63 507.46 114.47 507.646 115.202 508.018C115.946 508.39 116.522 508.894 116.93 509.53C117.338 510.166 117.554 510.868 117.578 511.636C117.59 511.756 117.596 511.984 117.596 512.32C117.596 512.668 117.59 512.902 117.578 513.022ZM112.682 514.39C113.162 514.39 113.546 514.264 113.834 514.012C114.134 513.748 114.302 513.388 114.338 512.932C114.362 512.692 114.374 512.488 114.374 512.32C114.374 512.152 114.362 511.948 114.338 511.708C114.302 511.252 114.134 510.898 113.834 510.646C113.546 510.382 113.162 510.25 112.682 510.25C112.202 510.25 111.812 510.382 111.512 510.646C111.224 510.898 111.062 511.252 111.026 511.708C111.014 511.828 111.008 512.032 111.008 512.32C111.008 512.608 111.014 512.812 111.026 512.932C111.062 513.388 111.224 513.748 111.512 514.012C111.812 514.264 112.202 514.39 112.682 514.39ZM128.239 513.022C128.203 513.79 127.981 514.492 127.573 515.128C127.165 515.752 126.595 516.25 125.863 516.622C125.131 516.994 124.291 517.18 123.343 517.18C122.395 517.18 121.555 516.994 120.823 516.622C120.091 516.25 119.521 515.752 119.113 515.128C118.705 514.492 118.483 513.79 118.447 513.022L118.429 512.32L118.447 511.636C118.471 510.868 118.687 510.166 119.095 509.53C119.503 508.894 120.073 508.39 120.805 508.018C121.549 507.646 122.395 507.46 123.343 507.46C124.291 507.46 125.131 507.646 125.863 508.018C126.607 508.39 127.183 508.894 127.591 509.53C127.999 510.166 128.215 510.868 128.239 511.636C128.251 511.756 128.257 511.984 128.257 512.32C128.257 512.668 128.251 512.902 128.239 513.022ZM123.343 514.39C123.823 514.39 124.207 514.264 124.495 514.012C124.795 513.748 124.963 513.388 124.999 512.932C125.023 512.692 125.035 512.488 125.035 512.32C125.035 512.152 125.023 511.948 124.999 511.708C124.963 511.252 124.795 510.898 124.495 510.646C124.207 510.382 123.823 510.25 123.343 510.25C122.863 510.25 122.473 510.382 122.173 510.646C121.885 510.898 121.723 511.252 121.687 511.708C121.675 511.828 121.669 512.032 121.669 512.32C121.669 512.608 121.675 512.812 121.687 512.932C121.723 513.388 121.885 513.748 122.173 514.012C122.473 514.264 122.863 514.39 123.343 514.39ZM133.877 513.346C133.877 513.922 134.135 514.21 134.651 514.21H136.091C136.223 514.21 136.337 514.258 136.433 514.354C136.529 514.45 136.577 514.564 136.577 514.696V516.514C136.577 516.646 136.529 516.76 136.433 516.856C136.337 516.952 136.223 517 136.091 517H134.381C133.241 517 132.329 516.682 131.645 516.046C130.973 515.41 130.637 514.546 130.637 513.454V510.43H129.305C129.173 510.43 129.059 510.382 128.963 510.286C128.867 510.19 128.819 510.076 128.819 509.944V508.126C128.819 507.994 128.867 507.88 128.963 507.784C129.059 507.688 129.173 507.64 129.305 507.64H130.637V504.706C130.637 504.574 130.685 504.46 130.781 504.364C130.877 504.268 130.991 504.22 131.123 504.22H133.391C133.523 504.22 133.637 504.268 133.733 504.364C133.829 504.46 133.877 504.574 133.877 504.706V507.64H135.911C136.043 507.64 136.157 507.688 136.253 507.784C136.349 507.88 136.397 507.994 136.397 508.126V509.944C136.397 510.076 136.349 510.19 136.253 510.286C136.157 510.382 136.043 510.43 135.911 510.43H133.877V513.346ZM147.334 516.514C147.334 516.646 147.286 516.76 147.19 516.856C147.094 516.952 146.98 517 146.848 517H144.58C144.448 517 144.334 516.952 144.238 516.856C144.142 516.76 144.094 516.646 144.094 516.514V511.96C144.094 511.432 143.962 511.018 143.698 510.718C143.446 510.406 143.056 510.25 142.528 510.25C142.012 510.25 141.622 510.4 141.358 510.7C141.106 511 140.98 511.42 140.98 511.96V516.514C140.98 516.646 140.932 516.76 140.836 516.856C140.74 516.952 140.626 517 140.494 517H138.226C138.094 517 137.98 516.952 137.884 516.856C137.788 516.76 137.74 516.646 137.74 516.514V504.706C137.74 504.574 137.788 504.46 137.884 504.364C137.98 504.268 138.094 504.22 138.226 504.22H140.494C140.626 504.22 140.74 504.268 140.836 504.364C140.932 504.46 140.98 504.574 140.98 504.706V508.54C141.208 508.252 141.544 508 141.988 507.784C142.432 507.568 142.912 507.46 143.428 507.46C144.64 507.46 145.594 507.802 146.29 508.486C146.986 509.17 147.334 510.196 147.334 511.564V516.514Z" fill="black"/>
<circle cx="70" cy="551" r="9" stroke="black" stroke-width="2"/>
<circle cx="70" cy="551" r="4" fill="black"/>
<path d="M98.8023 551.056H103.698C103.816 551.056 103.917 551.013 104.002 550.928C104.088 550.843 104.13 550.741 104.13 550.624V550.048C104.13 549.931 104.088 549.829 104.002 549.744C103.917 549.659 103.816 549.616 103.698 549.616H98.8023V546.24H104.05C104.168 546.24 104.269 546.197 104.354 546.112C104.44 546.027 104.482 545.925 104.482 545.808V545.232C104.482 545.115 104.44 545.013 104.354 544.928C104.269 544.843 104.168 544.8 104.05 544.8H97.7143C97.5969 544.8 97.4956 544.843 97.4103 544.928C97.3249 545.013 97.2823 545.115 97.2823 545.232V555.568C97.2823 555.685 97.3249 555.787 97.4103 555.872C97.4956 555.957 97.5969 556 97.7143 556H104.178C104.296 556 104.397 555.957 104.482 555.872C104.568 555.787 104.61 555.685 104.61 555.568V554.992C104.61 554.875 104.568 554.773 104.482 554.688C104.397 554.603 104.296 554.56 104.178 554.56H98.8023V551.056ZM109.935 554.784C111.002 554.784 111.722 554.368 112.095 553.536C112.17 553.376 112.244 553.264 112.319 553.2C112.394 553.136 112.495 553.104 112.623 553.104H113.103C113.22 553.104 113.322 553.147 113.407 553.232C113.492 553.307 113.535 553.397 113.535 553.504C113.535 553.867 113.391 554.256 113.103 554.672C112.815 555.088 112.399 555.44 111.855 555.728C111.311 556.016 110.671 556.16 109.935 556.16C109.178 556.16 108.522 556 107.967 555.68C107.412 555.36 106.986 554.923 106.687 554.368C106.388 553.803 106.223 553.173 106.191 552.48C106.18 552.352 106.175 552.107 106.175 551.744C106.175 551.488 106.18 551.307 106.191 551.2C106.287 550.112 106.655 549.227 107.295 548.544C107.935 547.861 108.815 547.52 109.935 547.52C110.671 547.52 111.306 547.664 111.839 547.952C112.383 548.229 112.794 548.576 113.071 548.992C113.359 549.397 113.514 549.781 113.535 550.144C113.546 550.261 113.503 550.363 113.407 550.448C113.322 550.533 113.22 550.576 113.103 550.576H112.623C112.495 550.576 112.394 550.544 112.319 550.48C112.244 550.416 112.17 550.304 112.095 550.144C111.722 549.312 111.002 548.896 109.935 548.896C109.348 548.896 108.836 549.093 108.399 549.488C107.962 549.883 107.711 550.48 107.647 551.28C107.636 551.397 107.631 551.589 107.631 551.856C107.631 552.101 107.636 552.283 107.647 552.4C107.722 553.2 107.972 553.797 108.399 554.192C108.836 554.587 109.348 554.784 109.935 554.784ZM121.914 547.68C122.031 547.68 122.133 547.723 122.218 547.808C122.303 547.893 122.346 547.995 122.346 548.112V548.624C122.346 548.741 122.303 548.843 122.218 548.928C122.133 549.013 122.031 549.056 121.914 549.056H119.146V555.568C119.146 555.685 119.103 555.787 119.018 555.872C118.933 555.957 118.831 556 118.714 556H118.122C118.005 556 117.903 555.957 117.818 555.872C117.733 555.787 117.69 555.685 117.69 555.568V549.056H114.922C114.805 549.056 114.703 549.013 114.618 548.928C114.533 548.843 114.49 548.741 114.49 548.624V548.112C114.49 547.995 114.533 547.893 114.618 547.808C114.703 547.723 114.805 547.68 114.922 547.68H121.914ZM123.794 548.112C123.794 547.995 123.836 547.893 123.922 547.808C124.007 547.723 124.108 547.68 124.226 547.68H124.818C124.935 547.68 125.036 547.723 125.122 547.808C125.207 547.893 125.25 547.995 125.25 548.112V549.728H126.978C127.65 549.728 128.247 549.861 128.77 550.128C129.303 550.384 129.714 550.752 130.002 551.232C130.29 551.701 130.434 552.245 130.434 552.864C130.434 553.483 130.29 554.032 130.002 554.512C129.714 554.981 129.303 555.349 128.77 555.616C128.247 555.872 127.65 556 126.978 556H124.226C124.108 556 124.007 555.957 123.922 555.872C123.836 555.787 123.794 555.685 123.794 555.568V548.112ZM125.25 551.104V554.624H126.754C127.447 554.624 127.991 554.485 128.386 554.208C128.791 553.931 128.994 553.483 128.994 552.864C128.994 552.245 128.791 551.797 128.386 551.52C127.991 551.243 127.447 551.104 126.754 551.104H125.25Z" fill="black"/>
<circle cx="70" cy="591" r="9" stroke="#CCCCCC" stroke-width="2"/>
<path d="M105.616 584.8C105.733 584.8 105.835 584.843 105.92 584.928C106.005 585.013 106.048 585.115 106.048 585.232V595.568C106.048 595.685 106.005 595.787 105.92 595.872C105.835 595.957 105.733 596 105.616 596H104.96C104.843 596 104.741 595.957 104.656 595.872C104.571 595.787 104.528 595.685 104.528 595.568V591.056H98.896V595.568C98.896 595.685 98.8533 595.787 98.768 595.872C98.6827 595.957 98.5813 596 98.464 596H97.808C97.6907 596 97.5893 595.963 97.504 595.888C97.4187 595.803 97.376 595.696 97.376 595.568V585.232C97.376 585.115 97.4187 585.013 97.504 584.928C97.5893 584.843 97.6907 584.8 97.808 584.8H98.464C98.5813 584.8 98.6827 584.843 98.768 584.928C98.8533 585.013 98.896 585.115 98.896 585.232V589.616H104.528V585.232C104.528 585.115 104.571 585.013 104.656 584.928C104.741 584.843 104.843 584.8 104.96 584.8H105.616ZM111.777 587.52C112.918 587.52 113.82 587.883 114.481 588.608C115.142 589.333 115.473 590.32 115.473 591.568V592C115.473 592.117 115.43 592.219 115.345 592.304C115.26 592.389 115.158 592.432 115.041 592.432H109.537V592.528C109.558 593.232 109.772 593.787 110.177 594.192C110.593 594.587 111.126 594.784 111.777 594.784C112.31 594.784 112.721 594.715 113.009 594.576C113.308 594.437 113.574 594.24 113.809 593.984C113.894 593.899 113.969 593.84 114.033 593.808C114.108 593.776 114.204 593.76 114.321 593.76H114.801C114.929 593.76 115.036 593.803 115.121 593.888C115.206 593.973 115.244 594.075 115.233 594.192C115.19 594.48 115.03 594.779 114.753 595.088C114.486 595.387 114.097 595.643 113.585 595.856C113.084 596.059 112.481 596.16 111.777 596.16C111.094 596.16 110.486 596.005 109.953 595.696C109.42 595.376 108.993 594.939 108.673 594.384C108.364 593.829 108.177 593.205 108.113 592.512C108.092 592.192 108.081 591.947 108.081 591.776C108.081 591.605 108.092 591.36 108.113 591.04C108.177 590.379 108.364 589.781 108.673 589.248C108.993 588.715 109.414 588.293 109.937 587.984C110.47 587.675 111.084 587.52 111.777 587.52ZM114.033 591.088V591.04C114.033 590.389 113.825 589.872 113.409 589.488C113.004 589.093 112.46 588.896 111.777 588.896C111.158 588.896 110.63 589.093 110.193 589.488C109.766 589.883 109.548 590.4 109.537 591.04V591.088H114.033ZM123.867 587.68C123.984 587.68 124.086 587.723 124.171 587.808C124.256 587.893 124.299 587.995 124.299 588.112V588.624C124.299 588.741 124.256 588.843 124.171 588.928C124.086 589.013 123.984 589.056 123.867 589.056H121.099V595.568C121.099 595.685 121.056 595.787 120.971 595.872C120.886 595.957 120.784 596 120.667 596H120.075C119.958 596 119.856 595.957 119.771 595.872C119.686 595.787 119.643 595.685 119.643 595.568V589.056H116.875C116.758 589.056 116.656 589.013 116.571 588.928C116.486 588.843 116.443 588.741 116.443 588.624V588.112C116.443 587.995 116.486 587.893 116.571 587.808C116.656 587.723 116.758 587.68 116.875 587.68H123.867Z" fill="black"/>
<rect x="60" y="652" width="220" height="8" fill="#FFE17F"/>
<path d="M110.523 663V650.22H121.161V663H118.209V652.812H113.475V663H110.523ZM132.868 663.108C131.908 663.108 131.038 662.928 130.258 662.568C129.49 662.196 128.824 661.704 128.26 661.092C127.708 660.468 127.282 659.772 126.982 659.004C126.682 658.224 126.532 657.42 126.532 656.592C126.532 655.74 126.688 654.93 127 654.162C127.324 653.394 127.768 652.71 128.332 652.11C128.908 651.498 129.586 651.018 130.366 650.67C131.146 650.322 131.998 650.148 132.922 650.148C133.87 650.148 134.728 650.334 135.496 650.706C136.276 651.066 136.942 651.558 137.494 652.182C138.058 652.806 138.49 653.508 138.79 654.288C139.09 655.056 139.24 655.842 139.24 656.646C139.24 657.498 139.084 658.308 138.772 659.076C138.46 659.844 138.016 660.534 137.44 661.146C136.864 661.746 136.186 662.226 135.406 662.586C134.638 662.934 133.792 663.108 132.868 663.108ZM129.538 656.628C129.538 657.12 129.61 657.6 129.754 658.068C129.898 658.524 130.108 658.932 130.384 659.292C130.672 659.652 131.026 659.94 131.446 660.156C131.866 660.372 132.346 660.48 132.886 660.48C133.45 660.48 133.942 660.372 134.362 660.156C134.782 659.928 135.13 659.628 135.406 659.256C135.682 658.884 135.886 658.47 136.018 658.014C136.162 657.546 136.234 657.072 136.234 656.592C136.234 656.1 136.162 655.626 136.018 655.17C135.874 654.714 135.658 654.306 135.37 653.946C135.082 653.574 134.728 653.286 134.308 653.082C133.888 652.878 133.414 652.776 132.886 652.776C132.322 652.776 131.83 652.884 131.41 653.1C131.002 653.316 130.654 653.61 130.366 653.982C130.09 654.342 129.88 654.756 129.736 655.224C129.604 655.68 129.538 656.148 129.538 656.628ZM144.6 663V650.22H147.534V655.17H148.542L152.106 650.22H155.382L150.81 656.394L155.778 663H152.196L148.452 657.852H147.534V663H144.6ZM164.129 650.22H167.315L171.707 663H168.683L167.693 660.138H163.715L162.743 663H159.719L164.129 650.22ZM167.207 658.104L165.713 653.19L164.183 658.104H167.207ZM181.013 663.126C179.909 663.126 178.913 662.904 178.025 662.46C177.149 662.016 176.453 661.398 175.937 660.606L178.151 659.238C178.439 659.682 178.817 660.036 179.285 660.3C179.765 660.552 180.317 660.678 180.941 660.678C181.649 660.678 182.165 660.534 182.489 660.246C182.813 659.958 182.975 659.592 182.975 659.148C182.975 658.848 182.903 658.584 182.759 658.356C182.627 658.128 182.411 657.954 182.111 657.834C181.823 657.702 181.451 657.636 180.995 657.636H179.357V655.422H181.013C181.385 655.422 181.691 655.368 181.931 655.26C182.171 655.14 182.345 654.984 182.453 654.792C182.573 654.588 182.633 654.354 182.633 654.09C182.633 653.826 182.567 653.598 182.435 653.406C182.315 653.202 182.123 653.046 181.859 652.938C181.595 652.818 181.253 652.758 180.833 652.758C180.161 652.758 179.591 652.884 179.123 653.136C178.655 653.388 178.301 653.712 178.061 654.108L175.919 652.596C176.459 651.852 177.125 651.258 177.917 650.814C178.721 650.358 179.735 650.13 180.959 650.13C181.907 650.13 182.717 650.262 183.389 650.526C184.061 650.79 184.577 651.186 184.937 651.714C185.309 652.23 185.495 652.872 185.495 653.64C185.495 654.192 185.357 654.726 185.081 655.242C184.817 655.746 184.373 656.142 183.749 656.43C184.457 656.634 185.003 657.006 185.387 657.546C185.771 658.086 185.963 658.716 185.963 659.436C185.963 660.24 185.747 660.918 185.315 661.47C184.883 662.01 184.295 662.424 183.551 662.712C182.807 662.988 181.961 663.126 181.013 663.126ZM194.374 650.22H197.56L201.952 663H198.928L197.938 660.138H193.96L192.988 663H189.964L194.374 650.22ZM197.452 658.104L195.958 653.19L194.428 658.104H197.452ZM215.389 652.812H211.501V663H208.549V652.812H204.643V650.22H215.389V652.812ZM220.484 663V650.22H223.436V654.63H225.812C226.76 654.63 227.57 654.798 228.242 655.134C228.914 655.47 229.43 655.95 229.79 656.574C230.15 657.198 230.33 657.936 230.33 658.788C230.33 659.628 230.156 660.366 229.808 661.002C229.46 661.638 228.962 662.13 228.314 662.478C227.666 662.826 226.886 663 225.974 663H220.484ZM223.436 660.588H225.542C225.95 660.588 226.286 660.51 226.55 660.354C226.814 660.198 227.006 659.982 227.126 659.706C227.258 659.43 227.324 659.124 227.324 658.788C227.324 658.476 227.258 658.188 227.126 657.924C227.006 657.66 226.814 657.45 226.55 657.294C226.298 657.126 225.962 657.042 225.542 657.042H223.436V660.588Z" fill="black"/>
</svg>
